<?xml version="1.0" encoding="UTF-8" standalone="no"?>
<!DOCTYPE score-partwise PUBLIC
"-//Recordare//DTD MusicXML 3.0 Partwise//EN"
 "http://www.musicxml.org/dtds/partwise.dtd">
<!-- Generated by ReadScoreLib (C) Organum Ltd and Dolphin Computing -->
<!-- This file is licensed for non-commercial use only -->
<!-- for ReadScoreLib licensing please contact support@playscore.co -->
<score-partwise version="3.0">
<identification>
<encoding>
<software>PlayScore 2</software>
<software>ReadScoreLib (© Organum Consulting and Dolphin Computing Ltd) Version 4.486</software>
<encoding-date>2024-01-19</encoding-date>
<supports element="beam" type="yes" value="yes"/>
<supports element="stem" type="yes" value="yes"/>
<supports element="accidental" type="yes" value="yes"/>
</encoding>
</identification>
<part-list>
 <score-part id="P1">
  <part-name print-object="no">Part 1</part-name>
 </score-part>
</part-list>
<part id="P1">
<measure number="1">
<attributes>
  <divisions>12</divisions>
  <time>
    <beats>4</beats>
    <beat-type>4</beat-type>
  </time>
  <staves>1</staves>
<clef number="1">
    <sign>G</sign>
    <line>2</line>
  </clef>
</attributes>
<attributes>
  <key>
    <fifths>0</fifths>
  </key>
</attributes>
<note>
  <pitch>
    <step>C</step>
    <alter>0</alter>
    <octave>5</octave>
  </pitch>
  <duration>2</duration>
  <voice>1</voice>
  <type>16th</type>
  <time-modification>
    <actual-notes>3</actual-notes>
    <normal-notes>2</normal-notes>
  </time-modification>
  <stem>down</stem>
  <beam number="1">begin</beam>
  <beam number="2">begin</beam>
  <notations>
    <tuplet type="start" bracket="yes">
<tuplet-actual>
<tuplet-number>3</tuplet-number>
<tuplet-type>16th</tuplet-type>
</tuplet-actual>
<tuplet-normal>
<tuplet-number>2</tuplet-number>
<tuplet-type>16th</tuplet-type>
</tuplet-normal>
</tuplet>
  </notations>
</note>
<note>
  <pitch>
    <step>D</step>
    <alter>0</alter>
    <octave>5</octave>
  </pitch>
  <duration>2</duration>
  <voice>1</voice>
  <type>16th</type>
  <time-modification>
    <actual-notes>3</actual-notes>
    <normal-notes>2</normal-notes>
  </time-modification>
  <stem>down</stem>
  <beam number="1">continue</beam>
  <beam number="2">continue</beam>
</note>
<note>
  <pitch>
    <step>C</step>
    <alter>0</alter>
    <octave>5</octave>
  </pitch>
  <duration>2</duration>
  <voice>1</voice>
  <type>16th</type>
  <time-modification>
    <actual-notes>3</actual-notes>
    <normal-notes>2</normal-notes>
  </time-modification>
  <stem>down</stem>
  <beam number="1">continue</beam>
  <beam number="2">continue</beam>
  <notations>
    <tuplet type="stop"/>
  </notations>
</note>
<note>
  <pitch>
    <step>B</step>
    <alter>0</alter>
    <octave>4</octave>
  </pitch>
  <duration>2</duration>
  <voice>1</voice>
  <type>16th</type>
  <time-modification>
    <actual-notes>3</actual-notes>
    <normal-notes>2</normal-notes>
  </time-modification>
  <stem>down</stem>
  <beam number="1">continue</beam>
  <beam number="2">continue</beam>
  <notations>
    <tuplet type="start" bracket="yes">
<tuplet-actual>
<tuplet-number>3</tuplet-number>
<tuplet-type>16th</tuplet-type>
</tuplet-actual>
<tuplet-normal>
<tuplet-number>2</tuplet-number>
<tuplet-type>16th</tuplet-type>
</tuplet-normal>
</tuplet>
  </notations>
</note>
<note>
  <pitch>
    <step>A</step>
    <alter>0</alter>
    <octave>4</octave>
  </pitch>
  <duration>2</duration>
  <voice>1</voice>
  <type>16th</type>
  <time-modification>
    <actual-notes>3</actual-notes>
    <normal-notes>2</normal-notes>
  </time-modification>
  <stem>down</stem>
  <beam number="1">continue</beam>
  <beam number="2">continue</beam>
</note>
<note>
  <pitch>
    <step>B</step>
    <alter>0</alter>
    <octave>4</octave>
  </pitch>
  <duration>2</duration>
  <voice>1</voice>
  <type>16th</type>
  <time-modification>
    <actual-notes>3</actual-notes>
    <normal-notes>2</normal-notes>
  </time-modification>
  <stem>down</stem>
  <beam number="1">end</beam>
  <beam number="2">end</beam>
  <notations>
    <tuplet type="stop"/>
  </notations>
</note>
<note>
  <pitch>
    <step>E</step>
    <alter>0</alter>
    <octave>4</octave>
  </pitch>
  <duration>36</duration>
  <voice>1</voice>
  <type>half</type>
  <dot/>
  <stem>up</stem>
  <notations>
<slur type="start" number="1" placement="below" orientation="under"/>
<slur type="start" number="2" placement="above" orientation="over"/>
  </notations>
</note>
</measure>
<measure number="2">
<note>
  <pitch>
    <step>A</step>
    <alter>0</alter>
    <octave>4</octave>
  </pitch>
  <duration>2</duration>
  <voice>1</voice>
  <type>16th</type>
  <time-modification>
    <actual-notes>3</actual-notes>
    <normal-notes>2</normal-notes>
  </time-modification>
  <stem>up</stem>
  <beam number="1">begin</beam>
  <beam number="2">begin</beam>
<notations><technical><fingering>1</fingering> </technical> </notations>  <notations>
    <tuplet type="start" bracket="yes">
<tuplet-actual>
<tuplet-number>3</tuplet-number>
<tuplet-type>16th</tuplet-type>
</tuplet-actual>
<tuplet-normal>
<tuplet-number>2</tuplet-number>
<tuplet-type>16th</tuplet-type>
</tuplet-normal>
</tuplet>
<articulations><tenuto placement="below"/></articulations>
  </notations>
</note>
<note>
  <pitch>
    <step>B</step>
    <alter>0</alter>
    <octave>4</octave>
  </pitch>
  <duration>2</duration>
  <voice>1</voice>
  <type>16th</type>
  <time-modification>
    <actual-notes>3</actual-notes>
    <normal-notes>2</normal-notes>
  </time-modification>
  <stem>up</stem>
  <beam number="1">continue</beam>
  <beam number="2">continue</beam>
  <notations>
    <slur type="stop" number="1"/>
    <slur type="stop" number="2"/>
  </notations>
</note>
<note>
  <pitch>
    <step>A</step>
    <alter>0</alter>
    <octave>4</octave>
  </pitch>
  <duration>2</duration>
  <voice>1</voice>
  <type>16th</type>
  <time-modification>
    <actual-notes>3</actual-notes>
    <normal-notes>2</normal-notes>
  </time-modification>
  <stem>up</stem>
  <beam number="1">continue</beam>
  <beam number="2">continue</beam>
  <notations>
    <tuplet type="stop"/>
  </notations>
</note>
<note>
  <pitch>
    <step>G</step>
    <alter>0</alter>
    <octave>4</octave>
  </pitch>
  <duration>2</duration>
  <voice>1</voice>
  <type>16th</type>
  <time-modification>
    <actual-notes>3</actual-notes>
    <normal-notes>2</normal-notes>
  </time-modification>
  <stem>up</stem>
  <beam number="1">continue</beam>
  <beam number="2">continue</beam>
<notations><technical><fingering>5</fingering> </technical> </notations>  <notations>
    <tuplet type="start" bracket="yes">
<tuplet-actual>
<tuplet-number>3</tuplet-number>
<tuplet-type>16th</tuplet-type>
</tuplet-actual>
<tuplet-normal>
<tuplet-number>2</tuplet-number>
<tuplet-type>16th</tuplet-type>
</tuplet-normal>
</tuplet>
  </notations>
</note>
<note>
  <pitch>
    <step>F</step>
    <alter>0</alter>
    <octave>4</octave>
  </pitch>
  <duration>2</duration>
  <voice>1</voice>
  <type>16th</type>
  <time-modification>
    <actual-notes>3</actual-notes>
    <normal-notes>2</normal-notes>
  </time-modification>
  <stem>up</stem>
  <beam number="1">continue</beam>
  <beam number="2">continue</beam>
</note>
<note>
  <pitch>
    <step>G</step>
    <alter>0</alter>
    <octave>4</octave>
  </pitch>
  <duration>2</duration>
  <voice>1</voice>
  <type>16th</type>
  <time-modification>
    <actual-notes>3</actual-notes>
    <normal-notes>2</normal-notes>
  </time-modification>
  <stem>up</stem>
  <beam number="1">end</beam>
  <beam number="2">end</beam>
  <notations>
    <tuplet type="stop"/>
  </notations>
</note>
<note>
  <pitch>
    <step>C</step>
    <alter>0</alter>
    <octave>4</octave>
  </pitch>
  <duration>36</duration>
  <voice>1</voice>
  <type>half</type>
  <dot/>
  <stem>up</stem>
</note>
</measure>
<measure number="3">
<direction placement="above"><direction-type><octave-shift type="down"/></direction-type>
<staff>1</staff>
</direction>
<note>
  <pitch>
    <step>C</step>
    <alter>0</alter>
    <octave>6</octave>
  </pitch>
  <duration>2</duration>
  <voice>1</voice>
  <type>16th</type>
  <time-modification>
    <actual-notes>3</actual-notes>
    <normal-notes>2</normal-notes>
  </time-modification>
  <stem>down</stem>
  <beam number="1">begin</beam>
  <beam number="2">begin</beam>
  <notations>
    <tuplet type="start" bracket="yes">
<tuplet-actual>
<tuplet-number>3</tuplet-number>
<tuplet-type>16th</tuplet-type>
</tuplet-actual>
<tuplet-normal>
<tuplet-number>2</tuplet-number>
<tuplet-type>16th</tuplet-type>
</tuplet-normal>
</tuplet>
  </notations>
</note>
<note>
  <pitch>
    <step>D</step>
    <alter>0</alter>
    <octave>6</octave>
  </pitch>
  <duration>2</duration>
  <voice>1</voice>
  <type>16th</type>
  <time-modification>
    <actual-notes>3</actual-notes>
    <normal-notes>2</normal-notes>
  </time-modification>
  <stem>down</stem>
  <beam number="1">continue</beam>
  <beam number="2">continue</beam>
</note>
<note>
  <pitch>
    <step>C</step>
    <alter>0</alter>
    <octave>6</octave>
  </pitch>
  <duration>2</duration>
  <voice>1</voice>
  <type>16th</type>
  <time-modification>
    <actual-notes>3</actual-notes>
    <normal-notes>2</normal-notes>
  </time-modification>
  <stem>down</stem>
  <beam number="1">continue</beam>
  <beam number="2">continue</beam>
  <notations>
    <tuplet type="stop"/>
  </notations>
</note>
<note>
  <pitch>
    <step>B</step>
    <alter>0</alter>
    <octave>5</octave>
  </pitch>
  <duration>2</duration>
  <voice>1</voice>
  <type>16th</type>
  <time-modification>
    <actual-notes>3</actual-notes>
    <normal-notes>2</normal-notes>
  </time-modification>
  <stem>down</stem>
  <beam number="1">continue</beam>
  <beam number="2">continue</beam>
  <notations>
    <tuplet type="start" bracket="yes">
<tuplet-actual>
<tuplet-number>3</tuplet-number>
<tuplet-type>16th</tuplet-type>
</tuplet-actual>
<tuplet-normal>
<tuplet-number>2</tuplet-number>
<tuplet-type>16th</tuplet-type>
</tuplet-normal>
</tuplet>
  </notations>
</note>
<note>
  <pitch>
    <step>A</step>
    <alter>0</alter>
    <octave>5</octave>
  </pitch>
  <duration>2</duration>
  <voice>1</voice>
  <type>16th</type>
  <time-modification>
    <actual-notes>3</actual-notes>
    <normal-notes>2</normal-notes>
  </time-modification>
  <stem>down</stem>
  <beam number="1">continue</beam>
  <beam number="2">continue</beam>
</note>
<note>
  <pitch>
    <step>B</step>
    <alter>0</alter>
    <octave>5</octave>
  </pitch>
  <duration>2</duration>
  <voice>1</voice>
  <type>16th</type>
  <time-modification>
    <actual-notes>3</actual-notes>
    <normal-notes>2</normal-notes>
  </time-modification>
  <stem>down</stem>
  <beam number="1">end</beam>
  <beam number="2">end</beam>
  <notations>
    <tuplet type="stop"/>
  </notations>
</note>
<note>
  <pitch>
    <step>E</step>
    <alter>0</alter>
    <octave>5</octave>
  </pitch>
  <duration>36</duration>
  <voice>1</voice>
  <type>half</type>
  <dot/>
  <stem>up</stem>
  <notations>
<slur type="start" number="3" placement="below" orientation="under"/>
<slur type="start" number="4" placement="below" orientation="under"/>
  </notations>
</note>
</measure>
<measure number="4">
<note>
  <pitch>
    <step>A</step>
    <alter>0</alter>
    <octave>5</octave>
  </pitch>
  <duration>2</duration>
  <voice>1</voice>
  <type>16th</type>
  <time-modification>
    <actual-notes>3</actual-notes>
    <normal-notes>2</normal-notes>
  </time-modification>
  <stem>up</stem>
  <beam number="1">begin</beam>
  <beam number="2">begin</beam>
  <notations>
    <tuplet type="start" bracket="yes">
<tuplet-actual>
<tuplet-number>3</tuplet-number>
<tuplet-type>eighth</tuplet-type>
</tuplet-actual>
<tuplet-normal>
<tuplet-number>2</tuplet-number>
<tuplet-type>eighth</tuplet-type>
</tuplet-normal>
</tuplet>
<articulations><tenuto placement="below"/></articulations>
  </notations>
</note>
<note>
  <pitch>
    <step>B</step>
    <alter>0</alter>
    <octave>5</octave>
  </pitch>
  <duration>2</duration>
  <voice>1</voice>
  <type>16th</type>
  <time-modification>
    <actual-notes>3</actual-notes>
    <normal-notes>2</normal-notes>
  </time-modification>
  <stem>up</stem>
  <beam number="1">continue</beam>
  <beam number="2">continue</beam>
  <notations>
    <slur type="stop" number="3"/>
    <slur type="stop" number="4"/>
  </notations>
</note>
<note>
  <pitch>
    <step>A</step>
    <alter>0</alter>
    <octave>5</octave>
  </pitch>
  <duration>2</duration>
  <voice>1</voice>
  <type>16th</type>
  <time-modification>
    <actual-notes>3</actual-notes>
    <normal-notes>2</normal-notes>
  </time-modification>
  <stem>up</stem>
  <beam number="1">continue</beam>
  <beam number="2">continue</beam>
</note>
<note>
  <pitch>
    <step>G</step>
    <alter>0</alter>
    <octave>5</octave>
  </pitch>
  <duration>2</duration>
  <voice>1</voice>
  <type>16th</type>
  <time-modification>
    <actual-notes>3</actual-notes>
    <normal-notes>2</normal-notes>
  </time-modification>
  <stem>up</stem>
  <beam number="1">continue</beam>
  <beam number="2">continue</beam>
</note>
<note>
  <pitch>
    <step>F</step>
    <alter>0</alter>
    <octave>5</octave>
  </pitch>
  <duration>2</duration>
  <voice>1</voice>
  <type>16th</type>
  <time-modification>
    <actual-notes>3</actual-notes>
    <normal-notes>2</normal-notes>
  </time-modification>
  <stem>up</stem>
  <beam number="1">continue</beam>
  <beam number="2">continue</beam>
</note>
<note>
  <pitch>
    <step>G</step>
    <alter>0</alter>
    <octave>5</octave>
  </pitch>
  <duration>2</duration>
  <voice>1</voice>
  <type>16th</type>
  <time-modification>
    <actual-notes>3</actual-notes>
    <normal-notes>2</normal-notes>
  </time-modification>
  <stem>up</stem>
  <beam number="1">end</beam>
  <beam number="2">end</beam>
  <notations>
    <tuplet type="stop"/>
  </notations>
</note>
<note>
  <pitch>
    <step>C</step>
    <alter>0</alter>
    <octave>5</octave>
  </pitch>
  <duration>36</duration>
  <voice>1</voice>
  <type>half</type>
  <dot/>
  <stem>up</stem>
</note>
<direction><direction-type><octave-shift type="stop"/></direction-type><offset>-1</offset>
<staff>1</staff>
</direction>
</measure>
<measure number="5">
<barline location="left"><bar-style>heavy-light</bar-style>
<repeat direction="forward"/>
</barline>
<note>
  <pitch>
    <step>A</step>
    <alter>0</alter>
    <octave>4</octave>
  </pitch>
  <duration>3</duration>
  <voice>1</voice>
  <type>16th</type>
  <stem>down</stem>
  <beam number="1">begin</beam>
  <beam number="2">begin</beam>
</note>
<note>
  <pitch>
    <step>B</step>
    <alter>0</alter>
    <octave>4</octave>
  </pitch>
  <duration>3</duration>
  <voice>1</voice>
  <type>16th</type>
  <stem>down</stem>
  <beam number="1">continue</beam>
  <beam number="2">continue</beam>
  <notations>
<slur type="start" number="5" placement="below" orientation="under"/>
  </notations>
</note>
<note>
  <pitch>
    <step>C</step>
    <alter>0</alter>
    <octave>5</octave>
  </pitch>
  <duration>3</duration>
  <voice>1</voice>
  <type>16th</type>
  <stem>down</stem>
  <beam number="1">continue</beam>
  <beam number="2">continue</beam>
  <notations>
    <slur type="stop" number="5"/>
  </notations>
</note>
<note>
  <pitch>
    <step>D</step>
    <alter>0</alter>
    <octave>5</octave>
  </pitch>
  <duration>3</duration>
  <voice>1</voice>
  <type>16th</type>
  <stem>down</stem>
  <beam number="1">end</beam>
  <beam number="2">end</beam>
</note>
<note>
  <pitch>
    <step>A</step>
    <alter>0</alter>
    <octave>4</octave>
  </pitch>
  <duration>36</duration>
  <voice>1</voice>
  <type>half</type>
  <dot/>
  <stem>down</stem>
</note>
<note>
  <chord/>
  <pitch>
    <step>C</step>
    <alter>0</alter>
    <octave>5</octave>
  </pitch>
  <duration>36</duration>
  <voice>1</voice>
  <type>half</type>
  <dot/>
  <stem>down</stem>
</note>
<note>
  <chord/>
  <pitch>
    <step>E</step>
    <alter>0</alter>
    <octave>5</octave>
  </pitch>
  <duration>36</duration>
  <voice>1</voice>
  <type>half</type>
  <dot/>
  <stem>down</stem>
</note>
</measure>
<measure number="6">
<note>
  <pitch>
    <step>F</step>
    <alter>0</alter>
    <octave>4</octave>
  </pitch>
  <duration>18</duration>
  <voice>1</voice>
  <type>quarter</type>
  <dot/>
  <stem>up</stem>
</note>
<note>
  <chord/>
  <pitch>
    <step>A</step>
    <alter>0</alter>
    <octave>4</octave>
  </pitch>
  <duration>18</duration>
  <voice>1</voice>
  <type>quarter</type>
  <dot/>
  <stem>up</stem>
</note>
<note>
  <chord/>
  <pitch>
    <step>D</step>
    <alter>0</alter>
    <octave>5</octave>
  </pitch>
  <duration>18</duration>
  <voice>1</voice>
  <type>quarter</type>
  <dot/>
  <stem>up</stem>
</note>
<note>
  <pitch>
    <step>C</step>
    <alter>0</alter>
    <octave>5</octave>
  </pitch>
  <duration>3</duration>
  <voice>1</voice>
  <type>16th</type>
  <stem>down</stem>
  <beam number="1">begin</beam>
  <beam number="2">begin</beam>
</note>
<note>
  <pitch>
    <step>B</step>
    <alter>0</alter>
    <octave>4</octave>
  </pitch>
  <duration>3</duration>
  <voice>1</voice>
  <type>16th</type>
  <stem>down</stem>
  <beam number="1">end</beam>
  <beam number="2">end</beam>
</note>
<note>
  <pitch>
    <step>F</step>
    <alter>0</alter>
    <octave>4</octave>
  </pitch>
  <duration>24</duration>
  <voice>1</voice>
  <type>half</type>
  <stem>up</stem>
</note>
<note>
  <chord/>
  <pitch>
    <step>A</step>
    <alter>0</alter>
    <octave>4</octave>
  </pitch>
  <duration>24</duration>
  <voice>1</voice>
  <type>half</type>
  <stem>up</stem>
</note>
<note>
  <chord/>
  <pitch>
    <step>C</step>
    <alter>0</alter>
    <octave>5</octave>
  </pitch>
  <duration>24</duration>
  <voice>1</voice>
  <type>half</type>
  <stem>up</stem>
</note>
</measure>
<measure number="7">
<note>
  <pitch>
    <step>A</step>
    <alter>0</alter>
    <octave>4</octave>
  </pitch>
  <duration>3</duration>
  <voice>1</voice>
  <type>16th</type>
  <stem>down</stem>
  <beam number="1">begin</beam>
  <beam number="2">begin</beam>
</note>
<note>
  <pitch>
    <step>B</step>
    <alter>0</alter>
    <octave>4</octave>
  </pitch>
  <duration>3</duration>
  <voice>1</voice>
  <type>16th</type>
  <stem>down</stem>
  <beam number="1">continue</beam>
  <beam number="2">continue</beam>
</note>
<note>
  <pitch>
    <step>C</step>
    <alter>0</alter>
    <octave>5</octave>
  </pitch>
  <duration>3</duration>
  <voice>1</voice>
  <type>16th</type>
  <stem>down</stem>
  <beam number="1">continue</beam>
  <beam number="2">continue</beam>
</note>
<note>
  <pitch>
    <step>D</step>
    <alter>0</alter>
    <octave>5</octave>
  </pitch>
  <duration>3</duration>
  <voice>1</voice>
  <type>16th</type>
  <stem>down</stem>
  <beam number="1">end</beam>
  <beam number="2">end</beam>
</note>
<note>
  <pitch>
    <step>A</step>
    <alter>0</alter>
    <octave>4</octave>
  </pitch>
  <duration>36</duration>
  <voice>1</voice>
  <type>half</type>
  <dot/>
  <stem>down</stem>
</note>
<note>
  <chord/>
  <pitch>
    <step>C</step>
    <alter>0</alter>
    <octave>5</octave>
  </pitch>
  <duration>36</duration>
  <voice>1</voice>
  <type>half</type>
  <dot/>
  <stem>down</stem>
</note>
<note>
  <chord/>
  <pitch>
    <step>E</step>
    <alter>0</alter>
    <octave>5</octave>
  </pitch>
  <duration>36</duration>
  <voice>1</voice>
  <type>half</type>
  <dot/>
  <stem>down</stem>
</note>
</measure>
<measure number="8">
<note>
  <pitch>
    <step>F</step>
    <alter>0</alter>
    <octave>4</octave>
  </pitch>
  <duration>18</duration>
  <voice>1</voice>
  <type>quarter</type>
  <dot/>
  <stem>up</stem>
</note>
<note>
  <chord/>
  <pitch>
    <step>A</step>
    <alter>0</alter>
    <octave>4</octave>
  </pitch>
  <duration>18</duration>
  <voice>1</voice>
  <type>quarter</type>
  <dot/>
  <stem>up</stem>
</note>
<note>
  <chord/>
  <pitch>
    <step>D</step>
    <alter>0</alter>
    <octave>5</octave>
  </pitch>
  <duration>18</duration>
  <voice>1</voice>
  <type>quarter</type>
  <dot/>
  <stem>up</stem>
</note>
<note>
  <pitch>
    <step>C</step>
    <alter>0</alter>
    <octave>5</octave>
  </pitch>
  <duration>3</duration>
  <voice>1</voice>
  <type>16th</type>
  <stem>down</stem>
  <beam number="1">begin</beam>
  <beam number="2">begin</beam>
</note>
<note>
  <pitch>
    <step>B</step>
    <alter>0</alter>
    <octave>4</octave>
  </pitch>
  <duration>3</duration>
  <voice>1</voice>
  <type>16th</type>
  <stem>down</stem>
  <beam number="1">end</beam>
  <beam number="2">end</beam>
</note>
<note>
  <pitch>
    <step>F</step>
    <alter>0</alter>
    <octave>4</octave>
  </pitch>
  <duration>24</duration>
  <voice>1</voice>
  <type>half</type>
  <stem>up</stem>
</note>
<note>
  <chord/>
  <pitch>
    <step>A</step>
    <alter>0</alter>
    <octave>4</octave>
  </pitch>
  <duration>24</duration>
  <voice>1</voice>
  <type>half</type>
  <stem>up</stem>
</note>
<note>
  <chord/>
  <pitch>
    <step>C</step>
    <alter>0</alter>
    <octave>5</octave>
  </pitch>
  <duration>24</duration>
  <voice>1</voice>
  <type>half</type>
  <stem>up</stem>
</note>
</measure>
<measure number="9">
<note>
  <pitch>
    <step>A</step>
    <alter>0</alter>
    <octave>4</octave>
  </pitch>
  <duration>6</duration>
  <voice>1</voice>
  <type>eighth</type>
  <stem>down</stem>
  <beam number="1">begin</beam>
</note>
<note>
  <chord/>
  <pitch>
    <step>D</step>
    <alter>0</alter>
    <octave>5</octave>
  </pitch>
  <duration>6</duration>
  <voice>1</voice>
  <type>eighth</type>
  <stem>down</stem>
</note>
<note>
  <chord/>
  <pitch>
    <step>F</step>
    <alter>0</alter>
    <octave>5</octave>
  </pitch>
  <duration>6</duration>
  <voice>1</voice>
  <type>eighth</type>
  <stem>down</stem>
</note>
<note>
  <pitch>
    <step>E</step>
    <alter>0</alter>
    <octave>5</octave>
  </pitch>
  <duration>3</duration>
  <voice>1</voice>
  <type>16th</type>
  <stem>down</stem>
  <beam number="1">continue</beam>
  <beam number="2">begin</beam>
</note>
<note>
  <pitch>
    <step>D</step>
    <alter>0</alter>
    <octave>5</octave>
  </pitch>
  <duration>3</duration>
  <voice>1</voice>
  <type>16th</type>
  <stem>down</stem>
  <beam number="1">end</beam>
  <beam number="2">end</beam>
</note>
<note>
  <pitch>
    <step>A</step>
    <alter>0</alter>
    <octave>4</octave>
  </pitch>
  <duration>36</duration>
  <voice>1</voice>
  <type>half</type>
  <dot/>
  <stem>up</stem>
</note>
</measure>
<measure number="10">
<note>
  <pitch>
    <step>F</step>
    <alter>0</alter>
    <octave>4</octave>
  </pitch>
  <duration>6</duration>
  <voice>1</voice>
  <type>eighth</type>
  <stem>down</stem>
  <beam number="1">begin</beam>
</note>
<note>
  <chord/>
  <pitch>
    <step>B</step>
    <alter>-1</alter>
    <octave>4</octave>
  </pitch>
  <duration>6</duration>
  <voice>1</voice>
  <type>eighth</type>
<accidental>flat</accidental>
  <stem>down</stem>
</note>
<note>
  <chord/>
  <pitch>
    <step>D</step>
    <alter>0</alter>
    <octave>5</octave>
  </pitch>
  <duration>6</duration>
  <voice>1</voice>
  <type>eighth</type>
  <stem>down</stem>
</note>
<note>
  <pitch>
    <step>C</step>
    <alter>0</alter>
    <octave>5</octave>
  </pitch>
  <duration>3</duration>
  <voice>1</voice>
  <type>16th</type>
  <stem>down</stem>
  <beam number="1">continue</beam>
  <beam number="2">begin</beam>
</note>
<note>
  <pitch>
    <step>B</step>
    <alter>-1</alter>
    <octave>4</octave>
  </pitch>
  <duration>3</duration>
  <voice>1</voice>
  <type>16th</type>
  <stem>down</stem>
  <beam number="1">end</beam>
  <beam number="2">end</beam>
</note>
<note>
  <pitch>
    <step>F</step>
    <alter>0</alter>
    <octave>4</octave>
  </pitch>
  <duration>24</duration>
    <tie type="start"/>
  <voice>1</voice>
  <type>half</type>
  <stem>up</stem>
  <notations>
<tied type="start" number="1" orientation="under"/>
  </notations>
</note>
<note>
  <pitch>
    <step>F</step>
    <alter>0</alter>
    <octave>4</octave>
  </pitch>
  <duration>6</duration>
    <tie type="stop"/>
  <voice>1</voice>
  <type>eighth</type>
  <stem>down</stem>
  <beam number="1">begin</beam>
  <notations>
    <tied type="stop" number="1"/>
  </notations>
</note>
<note>
  <pitch>
    <step>C</step>
    <alter>0</alter>
    <octave>5</octave>
  </pitch>
  <duration>3</duration>
  <voice>1</voice>
  <type>16th</type>
  <stem>down</stem>
  <beam number="1">continue</beam>
  <beam number="2">begin</beam>
</note>
<note>
  <chord/>
  <pitch>
    <step>E</step>
    <alter>0</alter>
    <octave>5</octave>
  </pitch>
  <duration>3</duration>
  <voice>1</voice>
  <type>16th</type>
  <stem>down</stem>
</note>
<note>
  <pitch>
    <step>D</step>
    <alter>0</alter>
    <octave>5</octave>
  </pitch>
  <duration>3</duration>
  <voice>1</voice>
  <type>16th</type>
  <stem>down</stem>
  <beam number="1">end</beam>
  <beam number="2">end</beam>
</note>
<note>
  <chord/>
  <pitch>
    <step>F</step>
    <alter>0</alter>
    <octave>5</octave>
  </pitch>
  <duration>3</duration>
  <voice>1</voice>
  <type>16th</type>
  <stem>down</stem>
</note>
</measure>
<measure number="11">
<note>
  <pitch>
    <step>E</step>
    <alter>0</alter>
    <octave>5</octave>
  </pitch>
  <duration>6</duration>
  <voice>1</voice>
  <type>eighth</type>
  <stem>down</stem>
  <beam number="1">begin</beam>
</note>
<note>
  <chord/>
  <pitch>
    <step>G</step>
    <alter>0</alter>
    <octave>5</octave>
  </pitch>
  <duration>6</duration>
  <voice>1</voice>
  <type>eighth</type>
  <stem>down</stem>
</note>
<note>
  <pitch>
    <step>D</step>
    <alter>0</alter>
    <octave>5</octave>
  </pitch>
  <duration>3</duration>
  <voice>1</voice>
  <type>16th</type>
  <stem>down</stem>
  <beam number="1">continue</beam>
  <beam number="2">begin</beam>
</note>
<note>
  <chord/>
  <pitch>
    <step>F</step>
    <alter>0</alter>
    <octave>5</octave>
  </pitch>
  <duration>3</duration>
  <voice>1</voice>
  <type>16th</type>
  <stem>down</stem>
</note>
<note>
  <pitch>
    <step>C</step>
    <alter>0</alter>
    <octave>5</octave>
  </pitch>
  <duration>3</duration>
  <voice>1</voice>
  <type>16th</type>
  <stem>down</stem>
  <beam number="1">end</beam>
  <beam number="2">end</beam>
</note>
<note>
  <chord/>
  <pitch>
    <step>E</step>
    <alter>0</alter>
    <octave>5</octave>
  </pitch>
  <duration>3</duration>
  <voice>1</voice>
  <type>16th</type>
  <stem>down</stem>
</note>
<note>
  <pitch>
    <step>D</step>
    <alter>0</alter>
    <octave>5</octave>
  </pitch>
  <duration>6</duration>
  <voice>1</voice>
  <type>eighth</type>
  <stem>down</stem>
  <beam number="1">begin</beam>
</note>
<note>
  <chord/>
  <pitch>
    <step>F</step>
    <alter>0</alter>
    <octave>5</octave>
  </pitch>
  <duration>6</duration>
  <voice>1</voice>
  <type>eighth</type>
  <stem>down</stem>
</note>
<note>
  <pitch>
    <step>C</step>
    <alter>0</alter>
    <octave>5</octave>
  </pitch>
  <duration>6</duration>
    <tie type="start"/>
  <voice>1</voice>
  <type>eighth</type>
  <stem>down</stem>
  <beam number="1">end</beam>
  <notations>
<tied type="start" number="1" orientation="under"/>
  </notations>
</note>
<note>
  <chord/>
  <pitch>
    <step>E</step>
    <alter>0</alter>
    <octave>5</octave>
  </pitch>
  <duration>6</duration>
    <tie type="start"/>
  <voice>1</voice>
  <type>eighth</type>
  <stem>down</stem>
  <notations>
<tied type="start" number="2" orientation="over"/>
  </notations>
</note>
<note>
  <pitch>
    <step>C</step>
    <alter>0</alter>
    <octave>5</octave>
  </pitch>
  <duration>6</duration>
    <tie type="stop"/>
  <voice>1</voice>
  <type>eighth</type>
  <stem>down</stem>
  <beam number="1">begin</beam>
  <notations>
    <tied type="stop" number="1"/>
  </notations>
</note>
<note>
  <chord/>
  <pitch>
    <step>E</step>
    <alter>0</alter>
    <octave>5</octave>
  </pitch>
  <duration>6</duration>
    <tie type="stop"/>
  <voice>1</voice>
  <type>eighth</type>
  <stem>down</stem>
  <notations>
    <tied type="stop" number="2"/>
  </notations>
</note>
<note>
  <pitch>
    <step>F</step>
    <alter>0</alter>
    <octave>4</octave>
  </pitch>
  <duration>3</duration>
  <voice>1</voice>
  <type>16th</type>
  <stem>down</stem>
  <beam number="1">continue</beam>
  <beam number="2">begin</beam>
</note>
<note>
  <chord/>
  <pitch>
    <step>D</step>
    <alter>0</alter>
    <octave>5</octave>
  </pitch>
  <duration>3</duration>
  <voice>1</voice>
  <type>16th</type>
  <stem>down</stem>
</note>
<note>
  <pitch>
    <step>C</step>
    <alter>0</alter>
    <octave>5</octave>
  </pitch>
  <duration>3</duration>
  <voice>1</voice>
  <type>16th</type>
  <stem>down</stem>
  <beam number="1">end</beam>
  <beam number="2">end</beam>
</note>
<note>
  <pitch>
    <step>D</step>
    <alter>0</alter>
    <octave>5</octave>
  </pitch>
  <duration>6</duration>
  <voice>1</voice>
  <type>eighth</type>
  <stem>down</stem>
  <beam number="1">begin</beam>
</note>
<note>
  <pitch>
    <step>E</step>
    <alter>0</alter>
    <octave>5</octave>
  </pitch>
  <duration>6</duration>
  <voice>1</voice>
  <type>eighth</type>
  <stem>down</stem>
  <beam number="1">end</beam>
</note>
</measure>
<measure number="12">
<note>
  <pitch>
    <step>F</step>
    <alter>0</alter>
    <octave>4</octave>
  </pitch>
  <duration>36</duration>
  <voice>1</voice>
  <type>half</type>
  <dot/>
  <stem>up</stem>
</note>
<note>
  <chord/>
  <pitch>
    <step>D</step>
    <alter>0</alter>
    <octave>5</octave>
  </pitch>
  <duration>36</duration>
  <voice>1</voice>
  <type>half</type>
  <dot/>
  <stem>up</stem>
</note>
<note>
  <pitch>
    <step>G</step>
    <alter>0</alter>
    <octave>4</octave>
  </pitch>
  <duration>12</duration>
  <voice>1</voice>
  <type>quarter</type>
  <stem>up</stem>
</note>
<barline location="right"><bar-style>light-heavy</bar-style>
<repeat direction="backward"/></barline>
</measure>
<measure number="13">
<note>
  <pitch>
    <step>F</step>
    <alter>0</alter>
    <octave>4</octave>
  </pitch>
  <duration>6</duration>
  <voice>1</voice>
  <type>eighth</type>
  <stem>up</stem>
  <beam number="1">begin</beam>
</note>
<note>
  <pitch>
    <step>C</step>
    <alter>0</alter>
    <octave>5</octave>
  </pitch>
  <duration>6</duration>
  <voice>1</voice>
  <type>eighth</type>
  <stem>up</stem>
  <beam number="1">continue</beam>
</note>
<note>
  <pitch>
    <step>B</step>
    <alter>-1</alter>
    <octave>4</octave>
  </pitch>
  <duration>6</duration>
  <voice>1</voice>
  <type>eighth</type>
<accidental>flat</accidental>
  <stem>up</stem>
  <beam number="1">continue</beam>
</note>
<note>
  <pitch>
    <step>A</step>
    <alter>0</alter>
    <octave>4</octave>
  </pitch>
  <duration>6</duration>
  <voice>1</voice>
  <type>eighth</type>
  <stem>up</stem>
  <beam number="1">end</beam>
</note>
<note>
  <pitch>
    <step>G</step>
    <alter>0</alter>
    <octave>4</octave>
  </pitch>
  <duration>12</duration>
  <voice>1</voice>
  <type>quarter</type>
  <stem>up</stem>
</note>
<note>
  <pitch>
    <step>F</step>
    <alter>0</alter>
    <octave>4</octave>
  </pitch>
  <duration>6</duration>
  <voice>1</voice>
  <type>eighth</type>
  <stem>up</stem>
  <beam number="1">begin</beam>
</note>
<note>
  <pitch>
    <step>C</step>
    <alter>0</alter>
    <octave>4</octave>
  </pitch>
  <duration>6</duration>
    <tie type="start"/>
  <voice>1</voice>
  <type>eighth</type>
  <stem>up</stem>
  <beam number="1">end</beam>
  <notations>
<slur type="start" number="1" placement="below" orientation="under"/>
<tied type="start" number="1" orientation="under"/>
  </notations>
</note>
<note>
  <chord/>
  <pitch>
    <step>F</step>
    <alter>0</alter>
    <octave>4</octave>
  </pitch>
  <duration>6</duration>
    <tie type="start"/>
  <voice>1</voice>
  <type>eighth</type>
  <stem>up</stem>
  <notations>
<tied type="start" number="2" orientation="under"/>
  </notations>
</note>
<note>
  <chord/>
  <pitch>
    <step>A</step>
    <alter>0</alter>
    <octave>4</octave>
  </pitch>
  <duration>6</duration>
    <tie type="start"/>
  <voice>1</voice>
  <type>eighth</type>
  <stem>up</stem>
  <notations>
<tied type="start" number="3" orientation="over"/>
  </notations>
</note>
</measure>
<measure number="14">
<note>
  <pitch>
    <step>C</step>
    <alter>0</alter>
    <octave>4</octave>
  </pitch>
  <duration>12</duration>
    <tie type="stop"/>
  <voice>1</voice>
  <type>quarter</type>
  <stem>up</stem>
  <notations>
    <tied type="stop" number="1"/>
  </notations>
</note>
<note>
  <chord/>
  <pitch>
    <step>F</step>
    <alter>0</alter>
    <octave>4</octave>
  </pitch>
  <duration>12</duration>
    <tie type="stop"/>
  <voice>1</voice>
  <type>quarter</type>
  <stem>up</stem>
  <notations>
    <tied type="stop" number="2"/>
  </notations>
</note>
<note>
  <chord/>
  <pitch>
    <step>A</step>
    <alter>0</alter>
    <octave>4</octave>
  </pitch>
  <duration>12</duration>
    <tie type="stop"/>
  <voice>1</voice>
  <type>quarter</type>
  <stem>up</stem>
  <notations>
    <tied type="stop" number="3"/>
  </notations>
</note>
<note>
  <pitch>
    <step>F</step>
    <alter>0</alter>
    <octave>5</octave>
  </pitch>
  <duration>6</duration>
  <voice>1</voice>
  <type>eighth</type>
  <stem>down</stem>
  <beam number="1">begin</beam>
  <notations>
    <slur type="stop" number="1"/>
  </notations>
</note>
<note>
  <chord/>
  <pitch>
    <step>A</step>
    <alter>0</alter>
    <octave>5</octave>
  </pitch>
  <duration>6</duration>
  <voice>1</voice>
  <type>eighth</type>
  <stem>down</stem>
</note>
<note>
  <pitch>
    <step>C</step>
    <alter>0</alter>
    <octave>5</octave>
  </pitch>
  <duration>6</duration>
  <voice>1</voice>
  <type>eighth</type>
  <stem>down</stem>
  <beam number="1">end</beam>
</note>
<note>
  <pitch>
    <step>E</step>
    <alter>0</alter>
    <octave>5</octave>
  </pitch>
  <duration>6</duration>
  <voice>1</voice>
  <type>eighth</type>
  <stem>down</stem>
  <beam number="1">begin</beam>
</note>
<note>
  <chord/>
  <pitch>
    <step>G</step>
    <alter>0</alter>
    <octave>5</octave>
  </pitch>
  <duration>6</duration>
  <voice>1</voice>
  <type>eighth</type>
  <stem>down</stem>
</note>
<note>
  <pitch>
    <step>C</step>
    <alter>0</alter>
    <octave>5</octave>
  </pitch>
  <duration>6</duration>
  <voice>1</voice>
  <type>eighth</type>
  <stem>down</stem>
  <beam number="1">continue</beam>
</note>
<note>
  <pitch>
    <step>F</step>
    <alter>0</alter>
    <octave>5</octave>
  </pitch>
  <duration>6</duration>
  <voice>1</voice>
  <type>eighth</type>
  <stem>down</stem>
  <beam number="1">continue</beam>
</note>
<note>
  <chord/>
  <pitch>
    <step>A</step>
    <alter>0</alter>
    <octave>5</octave>
  </pitch>
  <duration>6</duration>
  <voice>1</voice>
  <type>eighth</type>
  <stem>down</stem>
</note>
<note>
  <pitch>
    <step>C</step>
    <alter>0</alter>
    <octave>5</octave>
  </pitch>
  <duration>6</duration>
  <voice>1</voice>
  <type>eighth</type>
  <stem>down</stem>
  <beam number="1">end</beam>
</note>
</measure>
<measure number="15">
<note>
  <pitch>
    <step>F</step>
    <alter>0</alter>
    <octave>4</octave>
  </pitch>
  <duration>6</duration>
  <voice>1</voice>
  <type>eighth</type>
  <stem>up</stem>
  <beam number="1">begin</beam>
</note>
<note>
  <pitch>
    <step>C</step>
    <alter>0</alter>
    <octave>5</octave>
  </pitch>
  <duration>6</duration>
  <voice>1</voice>
  <type>eighth</type>
  <stem>up</stem>
  <beam number="1">continue</beam>
</note>
<note>
  <pitch>
    <step>B</step>
    <alter>-1</alter>
    <octave>4</octave>
  </pitch>
  <duration>6</duration>
  <voice>1</voice>
  <type>eighth</type>
<accidental>flat</accidental>
  <stem>up</stem>
  <beam number="1">continue</beam>
</note>
<note>
  <pitch>
    <step>A</step>
    <alter>0</alter>
    <octave>4</octave>
  </pitch>
  <duration>6</duration>
  <voice>1</voice>
  <type>eighth</type>
  <stem>up</stem>
  <beam number="1">end</beam>
</note>
<note>
  <pitch>
    <step>G</step>
    <alter>0</alter>
    <octave>4</octave>
  </pitch>
  <duration>12</duration>
  <voice>1</voice>
  <type>quarter</type>
  <stem>up</stem>
</note>
<note>
  <pitch>
    <step>F</step>
    <alter>0</alter>
    <octave>4</octave>
  </pitch>
  <duration>6</duration>
  <voice>1</voice>
  <type>eighth</type>
  <stem>up</stem>
  <beam number="1">begin</beam>
</note>
<note>
  <pitch>
    <step>C</step>
    <alter>0</alter>
    <octave>4</octave>
  </pitch>
  <duration>6</duration>
    <tie type="start"/>
  <voice>1</voice>
  <type>eighth</type>
  <stem>up</stem>
  <beam number="1">end</beam>
  <notations>
<tied type="start" number="1" orientation="under"/>
  </notations>
</note>
<note>
  <chord/>
  <pitch>
    <step>F</step>
    <alter>0</alter>
    <octave>4</octave>
  </pitch>
  <duration>6</duration>
    <tie type="start"/>
  <voice>1</voice>
  <type>eighth</type>
  <stem>up</stem>
  <notations>
<tied type="start" number="2" orientation="under"/>
  </notations>
</note>
<note>
  <chord/>
  <pitch>
    <step>A</step>
    <alter>0</alter>
    <octave>4</octave>
  </pitch>
  <duration>6</duration>
    <tie type="start"/>
  <voice>1</voice>
  <type>eighth</type>
  <stem>up</stem>
  <notations>
<tied type="start" number="3" orientation="over"/>
  </notations>
</note>
</measure>
<measure number="16">
<note>
  <pitch>
    <step>C</step>
    <alter>0</alter>
    <octave>4</octave>
  </pitch>
  <duration>12</duration>
    <tie type="stop"/>
  <voice>1</voice>
  <type>quarter</type>
  <stem>up</stem>
  <notations>
    <tied type="stop" number="1"/>
  </notations>
</note>
<note>
  <chord/>
  <pitch>
    <step>F</step>
    <alter>0</alter>
    <octave>4</octave>
  </pitch>
  <duration>12</duration>
    <tie type="stop"/>
  <voice>1</voice>
  <type>quarter</type>
  <stem>up</stem>
  <notations>
    <tied type="stop" number="2"/>
  </notations>
</note>
<note>
  <chord/>
  <pitch>
    <step>A</step>
    <alter>0</alter>
    <octave>4</octave>
  </pitch>
  <duration>12</duration>
    <tie type="stop"/>
  <voice>1</voice>
  <type>quarter</type>
  <stem>up</stem>
  <notations>
    <tied type="stop" number="3"/>
  </notations>
</note>
<note>
  <pitch>
    <step>A</step>
    <alter>0</alter>
    <octave>4</octave>
  </pitch>
  <duration>12</duration>
  <voice>1</voice>
  <type>quarter</type>
  <stem>down</stem>
</note>
<note>
  <chord/>
  <pitch>
    <step>D</step>
    <alter>0</alter>
    <octave>5</octave>
  </pitch>
  <duration>12</duration>
  <voice>1</voice>
  <type>quarter</type>
  <stem>down</stem>
</note>
<note>
  <chord/>
  <pitch>
    <step>F</step>
    <alter>0</alter>
    <octave>5</octave>
  </pitch>
  <duration>12</duration>
  <voice>1</voice>
  <type>quarter</type>
  <stem>down</stem>
</note>
<note>
  <pitch>
    <step>C</step>
    <alter>0</alter>
    <octave>5</octave>
  </pitch>
  <duration>6</duration>
  <voice>1</voice>
  <type>eighth</type>
  <stem>down</stem>
</note>
<note>
  <chord/>
  <pitch>
    <step>E</step>
    <alter>0</alter>
    <octave>5</octave>
  </pitch>
  <duration>6</duration>
  <voice>1</voice>
  <type>eighth</type>
  <stem>down</stem>
</note>
<note>
  <pitch>
    <step>A</step>
    <alter>0</alter>
    <octave>4</octave>
  </pitch>
  <duration>12</duration>
  <voice>1</voice>
  <type>quarter</type>
  <stem>down</stem>
</note>
<note>
  <chord/>
  <pitch>
    <step>D</step>
    <alter>0</alter>
    <octave>5</octave>
  </pitch>
  <duration>12</duration>
  <voice>1</voice>
  <type>quarter</type>
  <stem>down</stem>
</note>
<note>
  <chord/>
  <pitch>
    <step>F</step>
    <alter>0</alter>
    <octave>5</octave>
  </pitch>
  <duration>12</duration>
  <voice>1</voice>
  <type>quarter</type>
  <stem>down</stem>
</note>
<note>
  <pitch>
    <step>D</step>
    <alter>0</alter>
    <octave>4</octave>
  </pitch>
  <duration>6</duration>
    <tie type="start"/>
  <voice>1</voice>
  <type>eighth</type>
  <stem>up</stem>
  <notations>
<tied type="start" number="1" orientation="under"/>
  </notations>
</note>
<note>
  <chord/>
  <pitch>
    <step>F</step>
    <alter>0</alter>
    <octave>4</octave>
  </pitch>
  <duration>6</duration>
    <tie type="start"/>
  <voice>1</voice>
  <type>eighth</type>
  <stem>up</stem>
  <notations>
<tied type="start" number="2" orientation="over"/>
  </notations>
</note>
</measure>
<measure number="17">
<note>
  <pitch>
    <step>D</step>
    <alter>0</alter>
    <octave>4</octave>
  </pitch>
  <duration>6</duration>
    <tie type="stop"/>
  <voice>1</voice>
  <type>eighth</type>
  <stem>up</stem>
  <beam number="1">begin</beam>
  <notations>
    <tied type="stop" number="1"/>
  </notations>
</note>
<note>
  <chord/>
  <pitch>
    <step>F</step>
    <alter>0</alter>
    <octave>4</octave>
  </pitch>
  <duration>6</duration>
    <tie type="stop"/>
  <voice>1</voice>
  <type>eighth</type>
  <stem>up</stem>
  <notations>
    <tied type="stop" number="2"/>
  </notations>
</note>
<note>
  <pitch>
    <step>C</step>
    <alter>0</alter>
    <octave>5</octave>
  </pitch>
  <duration>6</duration>
  <voice>1</voice>
  <type>eighth</type>
  <stem>up</stem>
  <beam number="1">continue</beam>
</note>
<note>
  <pitch>
    <step>B</step>
    <alter>-1</alter>
    <octave>4</octave>
  </pitch>
  <duration>6</duration>
  <voice>1</voice>
  <type>eighth</type>
<accidental>flat</accidental>
  <stem>up</stem>
  <beam number="1">continue</beam>
</note>
<note>
  <pitch>
    <step>A</step>
    <alter>0</alter>
    <octave>4</octave>
  </pitch>
  <duration>6</duration>
  <voice>1</voice>
  <type>eighth</type>
  <stem>up</stem>
  <beam number="1">end</beam>
</note>
<note>
  <pitch>
    <step>G</step>
    <alter>0</alter>
    <octave>4</octave>
  </pitch>
  <duration>12</duration>
  <voice>1</voice>
  <type>quarter</type>
  <stem>up</stem>
</note>
<note>
  <pitch>
    <step>F</step>
    <alter>0</alter>
    <octave>4</octave>
  </pitch>
  <duration>6</duration>
  <voice>1</voice>
  <type>eighth</type>
  <stem>up</stem>
  <beam number="1">begin</beam>
</note>
<note>
  <pitch>
    <step>C</step>
    <alter>0</alter>
    <octave>4</octave>
  </pitch>
  <duration>6</duration>
    <tie type="start"/>
  <voice>1</voice>
  <type>eighth</type>
  <stem>up</stem>
  <beam number="1">end</beam>
  <notations>
<tied type="start" number="1" orientation="under"/>
  </notations>
</note>
<note>
  <chord/>
  <pitch>
    <step>F</step>
    <alter>0</alter>
    <octave>4</octave>
  </pitch>
  <duration>6</duration>
    <tie type="start"/>
  <voice>1</voice>
  <type>eighth</type>
  <stem>up</stem>
  <notations>
<tied type="start" number="2" orientation="under"/>
  </notations>
</note>
<note>
  <chord/>
  <pitch>
    <step>A</step>
    <alter>0</alter>
    <octave>4</octave>
  </pitch>
  <duration>6</duration>
    <tie type="start"/>
  <voice>1</voice>
  <type>eighth</type>
  <stem>up</stem>
  <notations>
<tied type="start" number="3" orientation="over"/>
  </notations>
</note>
</measure>
<measure number="18">
<note>
  <pitch>
    <step>C</step>
    <alter>0</alter>
    <octave>4</octave>
  </pitch>
  <duration>12</duration>
    <tie type="stop"/>
  <voice>1</voice>
  <type>quarter</type>
  <stem>up</stem>
  <notations>
    <tied type="stop" number="1"/>
  </notations>
</note>
<note>
  <chord/>
  <pitch>
    <step>F</step>
    <alter>0</alter>
    <octave>4</octave>
  </pitch>
  <duration>12</duration>
    <tie type="stop"/>
  <voice>1</voice>
  <type>quarter</type>
  <stem>up</stem>
  <notations>
    <tied type="stop" number="2"/>
  </notations>
</note>
<note>
  <chord/>
  <pitch>
    <step>A</step>
    <alter>0</alter>
    <octave>4</octave>
  </pitch>
  <duration>12</duration>
    <tie type="stop"/>
  <voice>1</voice>
  <type>quarter</type>
  <stem>up</stem>
  <notations>
    <tied type="stop" number="3"/>
  </notations>
</note>
<note>
  <pitch>
    <step>F</step>
    <alter>0</alter>
    <octave>5</octave>
  </pitch>
  <duration>6</duration>
  <voice>1</voice>
  <type>eighth</type>
  <stem>down</stem>
  <beam number="1">begin</beam>
</note>
<note>
  <chord/>
  <pitch>
    <step>A</step>
    <alter>0</alter>
    <octave>5</octave>
  </pitch>
  <duration>6</duration>
  <voice>1</voice>
  <type>eighth</type>
  <stem>down</stem>
</note>
<note>
  <pitch>
    <step>C</step>
    <alter>0</alter>
    <octave>5</octave>
  </pitch>
  <duration>6</duration>
  <voice>1</voice>
  <type>eighth</type>
  <stem>down</stem>
  <beam number="1">end</beam>
</note>
<note>
  <pitch>
    <step>E</step>
    <alter>0</alter>
    <octave>5</octave>
  </pitch>
  <duration>6</duration>
  <voice>1</voice>
  <type>eighth</type>
  <stem>down</stem>
  <beam number="1">begin</beam>
</note>
<note>
  <chord/>
  <pitch>
    <step>G</step>
    <alter>0</alter>
    <octave>5</octave>
  </pitch>
  <duration>6</duration>
  <voice>1</voice>
  <type>eighth</type>
  <stem>down</stem>
</note>
<note>
  <pitch>
    <step>C</step>
    <alter>0</alter>
    <octave>5</octave>
  </pitch>
  <duration>6</duration>
  <voice>1</voice>
  <type>eighth</type>
  <stem>down</stem>
  <beam number="1">continue</beam>
</note>
<note>
  <pitch>
    <step>F</step>
    <alter>0</alter>
    <octave>5</octave>
  </pitch>
  <duration>6</duration>
  <voice>1</voice>
  <type>eighth</type>
  <stem>down</stem>
  <beam number="1">continue</beam>
</note>
<note>
  <chord/>
  <pitch>
    <step>A</step>
    <alter>0</alter>
    <octave>5</octave>
  </pitch>
  <duration>6</duration>
  <voice>1</voice>
  <type>eighth</type>
  <stem>down</stem>
</note>
<note>
  <pitch>
    <step>C</step>
    <alter>0</alter>
    <octave>5</octave>
  </pitch>
  <duration>6</duration>
  <voice>1</voice>
  <type>eighth</type>
  <stem>down</stem>
  <beam number="1">end</beam>
</note>
</measure>
<measure number="19">
<note>
  <pitch>
    <step>F</step>
    <alter>0</alter>
    <octave>4</octave>
  </pitch>
  <duration>6</duration>
  <voice>1</voice>
  <type>eighth</type>
  <stem>up</stem>
  <beam number="1">begin</beam>
</note>
<note>
  <chord/>
  <pitch>
    <step>F</step>
    <alter>0</alter>
    <octave>5</octave>
  </pitch>
  <duration>6</duration>
  <voice>1</voice>
  <type>eighth</type>
  <stem>up</stem>
</note>
<note>
  <pitch>
    <step>G</step>
    <alter>0</alter>
    <octave>4</octave>
  </pitch>
  <duration>6</duration>
  <voice>1</voice>
  <type>eighth</type>
  <stem>up</stem>
  <beam number="1">continue</beam>
</note>
<note>
  <chord/>
  <pitch>
    <step>G</step>
    <alter>0</alter>
    <octave>5</octave>
  </pitch>
  <duration>6</duration>
  <voice>1</voice>
  <type>eighth</type>
  <stem>up</stem>
</note>
<note>
  <pitch>
    <step>F</step>
    <alter>0</alter>
    <octave>4</octave>
  </pitch>
  <duration>6</duration>
  <voice>1</voice>
  <type>eighth</type>
  <stem>up</stem>
  <beam number="1">continue</beam>
</note>
<note>
  <chord/>
  <pitch>
    <step>F</step>
    <alter>0</alter>
    <octave>5</octave>
  </pitch>
  <duration>6</duration>
  <voice>1</voice>
  <type>eighth</type>
  <stem>up</stem>
</note>
<note>
  <pitch>
    <step>G</step>
    <alter>0</alter>
    <octave>4</octave>
  </pitch>
  <duration>6</duration>
  <voice>1</voice>
  <type>eighth</type>
  <stem>up</stem>
  <beam number="1">end</beam>
</note>
<note>
  <chord/>
  <pitch>
    <step>G</step>
    <alter>0</alter>
    <octave>5</octave>
  </pitch>
  <duration>6</duration>
  <voice>1</voice>
  <type>eighth</type>
  <stem>up</stem>
</note>
<note>
  <pitch>
    <step>A</step>
    <alter>0</alter>
    <octave>4</octave>
  </pitch>
  <duration>6</duration>
  <voice>1</voice>
  <type>eighth</type>
  <stem>down</stem>
  <beam number="1">begin</beam>
</note>
<note>
  <chord/>
  <pitch>
    <step>A</step>
    <alter>0</alter>
    <octave>5</octave>
  </pitch>
  <duration>6</duration>
  <voice>1</voice>
  <type>eighth</type>
  <stem>down</stem>
</note>
<note>
  <pitch>
    <step>F</step>
    <alter>0</alter>
    <octave>5</octave>
  </pitch>
  <duration>6</duration>
  <voice>1</voice>
  <type>eighth</type>
  <stem>down</stem>
  <beam number="1">continue</beam>
</note>
<note>
  <pitch>
    <step>D</step>
    <alter>0</alter>
    <octave>5</octave>
  </pitch>
  <duration>6</duration>
  <voice>1</voice>
  <type>eighth</type>
  <stem>down</stem>
  <beam number="1">continue</beam>
</note>
<note>
  <pitch>
    <step>A</step>
    <alter>0</alter>
    <octave>4</octave>
  </pitch>
  <duration>6</duration>
  <voice>1</voice>
  <type>eighth</type>
  <stem>down</stem>
  <beam number="1">end</beam>
  <notations>
<articulations><staccatissimo placement="below"/></articulations>
  </notations>
</note>
<barline location="right"><bar-style>light-heavy</bar-style></barline>
</measure>
<measure number="20">
<attributes>
  <time>
    <beats>6</beats>
    <beat-type>4</beat-type>
  </time>
</attributes>
<note>
  <pitch>
    <step>G</step>
    <alter>1</alter>
    <octave>4</octave>
  </pitch>
  <duration>6</duration>
  <voice>1</voice>
  <type>eighth</type>
<accidental>sharp</accidental>
  <stem>down</stem>
  <beam number="1">begin</beam>
</note>
<note>
  <chord/>
  <pitch>
    <step>G</step>
    <alter>1</alter>
    <octave>5</octave>
  </pitch>
  <duration>6</duration>
  <voice>1</voice>
  <type>eighth</type>
<accidental>sharp</accidental>
  <stem>down</stem>
</note>
<note>
  <pitch>
    <step>A</step>
    <alter>0</alter>
    <octave>4</octave>
  </pitch>
  <duration>6</duration>
  <voice>1</voice>
  <type>eighth</type>
  <stem>down</stem>
  <beam number="1">continue</beam>
</note>
<note>
  <chord/>
  <pitch>
    <step>A</step>
    <alter>0</alter>
    <octave>5</octave>
  </pitch>
  <duration>6</duration>
  <voice>1</voice>
  <type>eighth</type>
  <stem>down</stem>
</note>
<note>
  <pitch>
    <step>G</step>
    <alter>1</alter>
    <octave>4</octave>
  </pitch>
  <duration>6</duration>
  <voice>1</voice>
  <type>eighth</type>
<accidental>sharp</accidental>
  <stem>down</stem>
  <beam number="1">continue</beam>
</note>
<note>
  <chord/>
  <pitch>
    <step>G</step>
    <alter>1</alter>
    <octave>5</octave>
  </pitch>
  <duration>6</duration>
  <voice>1</voice>
  <type>eighth</type>
<accidental>sharp</accidental>
  <stem>down</stem>
</note>
<note>
  <pitch>
    <step>A</step>
    <alter>0</alter>
    <octave>4</octave>
  </pitch>
  <duration>6</duration>
  <voice>1</voice>
  <type>eighth</type>
  <stem>down</stem>
  <beam number="1">end</beam>
</note>
<note>
  <chord/>
  <pitch>
    <step>A</step>
    <alter>0</alter>
    <octave>5</octave>
  </pitch>
  <duration>6</duration>
  <voice>1</voice>
  <type>eighth</type>
  <stem>down</stem>
</note>
<note>
  <pitch>
    <step>B</step>
    <alter>0</alter>
    <octave>4</octave>
  </pitch>
  <duration>12</duration>
  <voice>1</voice>
  <type>quarter</type>
  <stem>down</stem>
</note>
<note>
  <chord/>
  <pitch>
    <step>D</step>
    <alter>0</alter>
    <octave>5</octave>
  </pitch>
  <duration>12</duration>
  <voice>1</voice>
  <type>quarter</type>
  <stem>down</stem>
</note>
<note>
  <chord/>
  <pitch>
    <step>G</step>
    <alter>1</alter>
    <octave>5</octave>
  </pitch>
  <duration>12</duration>
  <voice>1</voice>
  <type>quarter</type>
  <stem>down</stem>
</note>
<note>
  <chord/>
  <pitch>
    <step>B</step>
    <alter>0</alter>
    <octave>5</octave>
  </pitch>
  <duration>12</duration>
  <voice>1</voice>
  <type>quarter</type>
  <stem>down</stem>
</note>
<note>
  <pitch>
    <step>E</step>
    <alter>0</alter>
    <octave>4</octave>
  </pitch>
  <duration>12</duration>
  <voice>1</voice>
  <type>quarter</type>
<accidental>natural</accidental>
  <stem>up</stem>
  <notations>
<slur type="start" number="2" placement="below" orientation="under"/>
<articulations><tenuto placement="below"/></articulations>
  </notations>
</note>
<note>
  <chord/>
  <pitch>
    <step>G</step>
    <alter>1</alter>
    <octave>4</octave>
  </pitch>
  <duration>12</duration>
  <voice>1</voice>
  <type>quarter</type>
<accidental>sharp</accidental>
  <stem>up</stem>
</note>
<note>
  <chord/>
  <pitch>
    <step>E</step>
    <alter>0</alter>
    <octave>5</octave>
  </pitch>
  <duration>12</duration>
  <voice>1</voice>
  <type>quarter</type>
  <stem>up</stem>
</note>
<note>
  <pitch>
    <step>G</step>
    <alter>1</alter>
    <octave>4</octave>
  </pitch>
  <duration>12</duration>
  <voice>1</voice>
  <type>quarter</type>
  <stem>down</stem>
  <notations>
<articulations><tenuto placement="above"/></articulations>
  </notations>
</note>
<note>
  <chord/>
  <pitch>
    <step>B</step>
    <alter>0</alter>
    <octave>4</octave>
  </pitch>
  <duration>12</duration>
  <voice>1</voice>
  <type>quarter</type>
  <stem>down</stem>
</note>
<note>
  <chord/>
  <pitch>
    <step>G</step>
    <alter>1</alter>
    <octave>5</octave>
  </pitch>
  <duration>12</duration>
  <voice>1</voice>
  <type>quarter</type>
  <stem>down</stem>
</note>
<note>
  <pitch>
    <step>B</step>
    <alter>0</alter>
    <octave>4</octave>
  </pitch>
  <duration>12</duration>
  <voice>1</voice>
  <type>quarter</type>
  <stem>down</stem>
  <notations>
    <slur type="stop" number="2"/>
<articulations><tenuto placement="above"/></articulations>
  </notations>
</note>
<note>
  <chord/>
  <pitch>
    <step>E</step>
    <alter>0</alter>
    <octave>5</octave>
  </pitch>
  <duration>12</duration>
  <voice>1</voice>
  <type>quarter</type>
  <stem>down</stem>
</note>
<note>
  <chord/>
  <pitch>
    <step>G</step>
    <alter>1</alter>
    <octave>5</octave>
  </pitch>
  <duration>12</duration>
  <voice>1</voice>
  <type>quarter</type>
<accidental>sharp</accidental>
  <stem>down</stem>
</note>
<note>
  <chord/>
  <pitch>
    <step>B</step>
    <alter>0</alter>
    <octave>5</octave>
  </pitch>
  <duration>12</duration>
  <voice>1</voice>
  <type>quarter</type>
  <stem>down</stem>
</note>
<barline location="right"><bar-style>light-heavy</bar-style></barline>
</measure>
<measure number="21">
<attributes>
  <time>
    <beats>4</beats>
    <beat-type>4</beat-type>
  </time>
</attributes>
<note>
  <pitch>
    <step>C</step>
    <alter>0</alter>
    <octave>5</octave>
  </pitch>
  <duration>2</duration>
  <voice>1</voice>
  <type>16th</type>
  <time-modification>
    <actual-notes>3</actual-notes>
    <normal-notes>2</normal-notes>
  </time-modification>
  <stem>down</stem>
  <beam number="1">begin</beam>
  <beam number="2">begin</beam>
  <notations>
    <tuplet type="start" bracket="yes">
<tuplet-actual>
<tuplet-number>3</tuplet-number>
<tuplet-type>16th</tuplet-type>
</tuplet-actual>
<tuplet-normal>
<tuplet-number>2</tuplet-number>
<tuplet-type>16th</tuplet-type>
</tuplet-normal>
</tuplet>
  </notations>
</note>
<note>
  <pitch>
    <step>D</step>
    <alter>0</alter>
    <octave>5</octave>
  </pitch>
  <duration>2</duration>
  <voice>1</voice>
  <type>16th</type>
  <time-modification>
    <actual-notes>3</actual-notes>
    <normal-notes>2</normal-notes>
  </time-modification>
  <stem>down</stem>
  <beam number="1">continue</beam>
  <beam number="2">continue</beam>
</note>
<note>
  <pitch>
    <step>C</step>
    <alter>0</alter>
    <octave>5</octave>
  </pitch>
  <duration>2</duration>
  <voice>1</voice>
  <type>16th</type>
  <time-modification>
    <actual-notes>3</actual-notes>
    <normal-notes>2</normal-notes>
  </time-modification>
  <stem>down</stem>
  <beam number="1">continue</beam>
  <beam number="2">continue</beam>
  <notations>
    <tuplet type="stop"/>
  </notations>
</note>
<note>
  <pitch>
    <step>B</step>
    <alter>0</alter>
    <octave>4</octave>
  </pitch>
  <duration>2</duration>
  <voice>1</voice>
  <type>16th</type>
  <time-modification>
    <actual-notes>3</actual-notes>
    <normal-notes>2</normal-notes>
  </time-modification>
  <stem>down</stem>
  <beam number="1">continue</beam>
  <beam number="2">continue</beam>
  <notations>
    <tuplet type="start" bracket="yes">
<tuplet-actual>
<tuplet-number>3</tuplet-number>
<tuplet-type>16th</tuplet-type>
</tuplet-actual>
<tuplet-normal>
<tuplet-number>2</tuplet-number>
<tuplet-type>16th</tuplet-type>
</tuplet-normal>
</tuplet>
  </notations>
</note>
<note>
  <pitch>
    <step>A</step>
    <alter>0</alter>
    <octave>4</octave>
  </pitch>
  <duration>2</duration>
  <voice>1</voice>
  <type>16th</type>
  <time-modification>
    <actual-notes>3</actual-notes>
    <normal-notes>2</normal-notes>
  </time-modification>
  <stem>down</stem>
  <beam number="1">continue</beam>
  <beam number="2">continue</beam>
</note>
<note>
  <pitch>
    <step>B</step>
    <alter>0</alter>
    <octave>4</octave>
  </pitch>
  <duration>2</duration>
  <voice>1</voice>
  <type>16th</type>
  <time-modification>
    <actual-notes>3</actual-notes>
    <normal-notes>2</normal-notes>
  </time-modification>
  <stem>down</stem>
  <beam number="1">end</beam>
  <beam number="2">end</beam>
  <notations>
    <tuplet type="stop"/>
  </notations>
</note>
<note>
  <pitch>
    <step>E</step>
    <alter>0</alter>
    <octave>4</octave>
  </pitch>
  <duration>36</duration>
  <voice>1</voice>
  <type>half</type>
  <dot/>
  <stem>up</stem>
  <notations>
<slur type="start" number="3" placement="below" orientation="under"/>
  </notations>
</note>
</measure>
<measure number="22">
<note>
  <pitch>
    <step>A</step>
    <alter>0</alter>
    <octave>4</octave>
  </pitch>
  <duration>2</duration>
  <voice>1</voice>
  <type>16th</type>
  <time-modification>
    <actual-notes>3</actual-notes>
    <normal-notes>2</normal-notes>
  </time-modification>
  <stem>up</stem>
  <beam number="1">begin</beam>
  <beam number="2">begin</beam>
  <notations>
    <tuplet type="start" bracket="yes">
<tuplet-actual>
<tuplet-number>3</tuplet-number>
<tuplet-type>eighth</tuplet-type>
</tuplet-actual>
<tuplet-normal>
<tuplet-number>2</tuplet-number>
<tuplet-type>eighth</tuplet-type>
</tuplet-normal>
</tuplet>
<articulations><tenuto placement="below"/></articulations>
  </notations>
</note>
<note>
  <pitch>
    <step>B</step>
    <alter>0</alter>
    <octave>4</octave>
  </pitch>
  <duration>2</duration>
  <voice>1</voice>
  <type>16th</type>
  <time-modification>
    <actual-notes>3</actual-notes>
    <normal-notes>2</normal-notes>
  </time-modification>
  <stem>up</stem>
  <beam number="1">continue</beam>
  <beam number="2">continue</beam>
  <notations>
    <slur type="stop" number="3"/>
  </notations>
</note>
<note>
  <pitch>
    <step>A</step>
    <alter>0</alter>
    <octave>4</octave>
  </pitch>
  <duration>2</duration>
  <voice>1</voice>
  <type>16th</type>
  <time-modification>
    <actual-notes>3</actual-notes>
    <normal-notes>2</normal-notes>
  </time-modification>
  <stem>up</stem>
  <beam number="1">continue</beam>
  <beam number="2">continue</beam>
</note>
<note>
  <pitch>
    <step>G</step>
    <alter>0</alter>
    <octave>4</octave>
  </pitch>
  <duration>2</duration>
  <voice>1</voice>
  <type>16th</type>
  <time-modification>
    <actual-notes>3</actual-notes>
    <normal-notes>2</normal-notes>
  </time-modification>
  <stem>up</stem>
  <beam number="1">continue</beam>
  <beam number="2">continue</beam>
</note>
<note>
  <pitch>
    <step>F</step>
    <alter>0</alter>
    <octave>4</octave>
  </pitch>
  <duration>2</duration>
  <voice>1</voice>
  <type>16th</type>
  <time-modification>
    <actual-notes>3</actual-notes>
    <normal-notes>2</normal-notes>
  </time-modification>
  <stem>up</stem>
  <beam number="1">continue</beam>
  <beam number="2">continue</beam>
</note>
<note>
  <pitch>
    <step>G</step>
    <alter>0</alter>
    <octave>4</octave>
  </pitch>
  <duration>2</duration>
  <voice>1</voice>
  <type>16th</type>
  <time-modification>
    <actual-notes>3</actual-notes>
    <normal-notes>2</normal-notes>
  </time-modification>
  <stem>up</stem>
  <beam number="1">end</beam>
  <beam number="2">end</beam>
  <notations>
    <tuplet type="stop"/>
  </notations>
</note>
<note>
  <pitch>
    <step>C</step>
    <alter>0</alter>
    <octave>4</octave>
  </pitch>
  <duration>12</duration>
  <voice>1</voice>
  <type>quarter</type>
  <stem>up</stem>
</note>
<note>
  <pitch>
    <step>D</step>
    <alter>0</alter>
    <octave>4</octave>
  </pitch>
  <duration>12</duration>
  <voice>1</voice>
  <type>quarter</type>
  <stem>up</stem>
</note>
<note>
  <chord/>
  <pitch>
    <step>D</step>
    <alter>0</alter>
    <octave>5</octave>
  </pitch>
  <duration>12</duration>
  <voice>1</voice>
  <type>quarter</type>
  <stem>up</stem>
</note>
<note>
  <pitch>
    <step>D</step>
    <alter>1</alter>
    <octave>4</octave>
  </pitch>
  <duration>12</duration>
  <voice>1</voice>
  <type>quarter</type>
<accidental>sharp</accidental>
  <stem>up</stem>
</note>
<note>
  <chord/>
  <pitch>
    <step>D</step>
    <alter>1</alter>
    <octave>5</octave>
  </pitch>
  <duration>12</duration>
  <voice>1</voice>
  <type>quarter</type>
<accidental>sharp</accidental>
  <stem>up</stem>
</note>
<barline location="right"><bar-style>light-heavy</bar-style></barline>
</measure>
<measure number="23">
<note>
  <pitch>
    <step>A</step>
    <alter>0</alter>
    <octave>4</octave>
  </pitch>
  <duration>3</duration>
  <voice>1</voice>
  <type>16th</type>
  <stem>down</stem>
  <beam number="1">begin</beam>
  <beam number="2">begin</beam>
  <notations>
<articulations><tenuto placement="above"/></articulations>
  </notations>
</note>
<note>
  <chord/>
  <pitch>
    <step>E</step>
    <alter>0</alter>
    <octave>5</octave>
  </pitch>
  <duration>3</duration>
  <voice>1</voice>
  <type>16th</type>
  <stem>down</stem>
</note>
<note>
  <pitch>
    <step>B</step>
    <alter>0</alter>
    <octave>4</octave>
  </pitch>
  <duration>3</duration>
  <voice>1</voice>
  <type>16th</type>
  <stem>down</stem>
  <beam number="1">continue</beam>
  <beam number="2">continue</beam>
</note>
<note>
  <pitch>
    <step>C</step>
    <alter>0</alter>
    <octave>5</octave>
  </pitch>
  <duration>3</duration>
  <voice>1</voice>
  <type>16th</type>
  <stem>down</stem>
  <beam number="1">continue</beam>
  <beam number="2">continue</beam>
</note>
<note>
  <pitch>
    <step>D</step>
    <alter>0</alter>
    <octave>5</octave>
  </pitch>
  <duration>3</duration>
  <voice>1</voice>
  <type>16th</type>
<accidental>natural</accidental>
  <stem>down</stem>
  <beam number="1">end</beam>
  <beam number="2">end</beam>
</note>
<note>
  <pitch>
    <step>E</step>
    <alter>0</alter>
    <octave>4</octave>
  </pitch>
  <duration>12</duration>
  <voice>1</voice>
  <type>quarter</type>
  <stem>down</stem>
</note>
<note>
  <chord/>
  <pitch>
    <step>C</step>
    <alter>0</alter>
    <octave>5</octave>
  </pitch>
  <duration>12</duration>
  <voice>1</voice>
  <type>quarter</type>
  <stem>down</stem>
</note>
<note>
  <chord/>
  <pitch>
    <step>E</step>
    <alter>0</alter>
    <octave>5</octave>
  </pitch>
  <duration>12</duration>
  <voice>1</voice>
  <type>quarter</type>
  <stem>down</stem>
</note>
<note>
  <pitch>
    <step>A</step>
    <alter>0</alter>
    <octave>5</octave>
  </pitch>
  <duration>3</duration>
  <voice>1</voice>
  <type>16th</type>
  <stem>down</stem>
  <beam number="1">begin</beam>
  <beam number="2">begin</beam>
</note>
<note>
  <pitch>
    <step>B</step>
    <alter>0</alter>
    <octave>5</octave>
  </pitch>
  <duration>3</duration>
  <voice>1</voice>
  <type>16th</type>
  <stem>down</stem>
  <beam number="1">continue</beam>
  <beam number="2">continue</beam>
</note>
<note>
  <pitch>
    <step>C</step>
    <alter>0</alter>
    <octave>6</octave>
  </pitch>
  <duration>3</duration>
  <voice>1</voice>
  <type>16th</type>
  <stem>down</stem>
  <beam number="1">continue</beam>
  <beam number="2">continue</beam>
</note>
<note>
  <pitch>
    <step>D</step>
    <alter>0</alter>
    <octave>6</octave>
  </pitch>
  <duration>3</duration>
  <voice>1</voice>
  <type>16th</type>
<accidental>natural</accidental>
  <stem>down</stem>
  <beam number="1">end</beam>
  <beam number="2">end</beam>
</note>
<direction><direction-type><octave-shift type="stop"/></direction-type><offset>-1</offset>
<staff>1</staff>
</direction>
<note>
  <pitch>
    <step>E</step>
    <alter>0</alter>
    <octave>5</octave>
  </pitch>
  <duration>12</duration>
  <voice>1</voice>
  <type>quarter</type>
  <stem>down</stem>
</note>
<note>
  <chord/>
  <pitch>
    <step>C</step>
    <alter>0</alter>
    <octave>6</octave>
  </pitch>
  <duration>12</duration>
  <voice>1</voice>
  <type>quarter</type>
  <stem>down</stem>
</note>
<note>
  <chord/>
  <pitch>
    <step>E</step>
    <alter>0</alter>
    <octave>6</octave>
  </pitch>
  <duration>12</duration>
  <voice>1</voice>
  <type>quarter</type>
  <stem>down</stem>
</note>
</measure>
<measure number="24">
<note>
  <pitch>
    <step>F</step>
    <alter>0</alter>
    <octave>4</octave>
  </pitch>
  <duration>18</duration>
  <voice>1</voice>
  <type>quarter</type>
  <dot/>
  <stem>up</stem>
</note>
<note>
  <chord/>
  <pitch>
    <step>A</step>
    <alter>0</alter>
    <octave>4</octave>
  </pitch>
  <duration>18</duration>
  <voice>1</voice>
  <type>quarter</type>
  <dot/>
  <stem>up</stem>
</note>
<note>
  <chord/>
  <pitch>
    <step>D</step>
    <alter>0</alter>
    <octave>5</octave>
  </pitch>
  <duration>18</duration>
  <voice>1</voice>
  <type>quarter</type>
  <dot/>
  <stem>up</stem>
</note>
<note>
  <pitch>
    <step>C</step>
    <alter>0</alter>
    <octave>5</octave>
  </pitch>
  <duration>3</duration>
  <voice>1</voice>
  <type>16th</type>
  <stem>down</stem>
  <beam number="1">begin</beam>
  <beam number="2">begin</beam>
</note>
<note>
  <pitch>
    <step>B</step>
    <alter>0</alter>
    <octave>4</octave>
  </pitch>
  <duration>3</duration>
  <voice>1</voice>
  <type>16th</type>
  <stem>down</stem>
  <beam number="1">end</beam>
  <beam number="2">end</beam>
</note>
<note>
  <pitch>
    <step>F</step>
    <alter>0</alter>
    <octave>4</octave>
  </pitch>
  <duration>24</duration>
  <voice>1</voice>
  <type>half</type>
  <stem>up</stem>
</note>
<note>
  <chord/>
  <pitch>
    <step>A</step>
    <alter>0</alter>
    <octave>4</octave>
  </pitch>
  <duration>24</duration>
  <voice>1</voice>
  <type>half</type>
  <stem>up</stem>
</note>
<note>
  <chord/>
  <pitch>
    <step>C</step>
    <alter>0</alter>
    <octave>5</octave>
  </pitch>
  <duration>24</duration>
  <voice>1</voice>
  <type>half</type>
  <stem>up</stem>
</note>
</measure>
<measure number="25">
<note>
  <pitch>
    <step>A</step>
    <alter>0</alter>
    <octave>4</octave>
  </pitch>
  <duration>3</duration>
  <voice>1</voice>
  <type>16th</type>
  <stem>down</stem>
  <beam number="1">begin</beam>
  <beam number="2">begin</beam>
  <notations>
<articulations><accent placement="above"/></articulations>
  </notations>
</note>
<note>
  <pitch>
    <step>B</step>
    <alter>0</alter>
    <octave>4</octave>
  </pitch>
  <duration>3</duration>
  <voice>1</voice>
  <type>16th</type>
  <stem>down</stem>
  <beam number="1">continue</beam>
  <beam number="2">continue</beam>
</note>
<note>
  <pitch>
    <step>C</step>
    <alter>0</alter>
    <octave>5</octave>
  </pitch>
  <duration>3</duration>
  <voice>1</voice>
  <type>16th</type>
  <stem>down</stem>
  <beam number="1">continue</beam>
  <beam number="2">continue</beam>
</note>
<note>
  <pitch>
    <step>D</step>
    <alter>0</alter>
    <octave>5</octave>
  </pitch>
  <duration>3</duration>
  <voice>1</voice>
  <type>16th</type>
  <stem>down</stem>
  <beam number="1">end</beam>
  <beam number="2">end</beam>
</note>
<note>
  <pitch>
    <step>E</step>
    <alter>0</alter>
    <octave>4</octave>
  </pitch>
  <duration>12</duration>
  <voice>1</voice>
  <type>quarter</type>
  <stem>down</stem>
</note>
<note>
  <chord/>
  <pitch>
    <step>C</step>
    <alter>0</alter>
    <octave>5</octave>
  </pitch>
  <duration>12</duration>
  <voice>1</voice>
  <type>quarter</type>
  <stem>down</stem>
</note>
<note>
  <chord/>
  <pitch>
    <step>E</step>
    <alter>0</alter>
    <octave>5</octave>
  </pitch>
  <duration>12</duration>
  <voice>1</voice>
  <type>quarter</type>
  <stem>down</stem>
</note>
<note>
  <pitch>
    <step>A</step>
    <alter>0</alter>
    <octave>5</octave>
  </pitch>
  <duration>3</duration>
  <voice>1</voice>
  <type>16th</type>
  <stem>down</stem>
  <beam number="1">begin</beam>
  <beam number="2">begin</beam>
</note>
<note>
  <pitch>
    <step>B</step>
    <alter>0</alter>
    <octave>5</octave>
  </pitch>
  <duration>3</duration>
  <voice>1</voice>
  <type>16th</type>
  <stem>down</stem>
  <beam number="1">continue</beam>
  <beam number="2">continue</beam>
</note>
<note>
  <pitch>
    <step>C</step>
    <alter>0</alter>
    <octave>6</octave>
  </pitch>
  <duration>3</duration>
  <voice>1</voice>
  <type>16th</type>
  <stem>down</stem>
  <beam number="1">continue</beam>
  <beam number="2">continue</beam>
</note>
<note>
  <pitch>
    <step>D</step>
    <alter>0</alter>
    <octave>6</octave>
  </pitch>
  <duration>3</duration>
  <voice>1</voice>
  <type>16th</type>
  <stem>down</stem>
  <beam number="1">end</beam>
  <beam number="2">end</beam>
</note>
<direction><direction-type><octave-shift type="stop"/></direction-type><offset>-1</offset>
<staff>1</staff>
</direction>
<note>
  <pitch>
    <step>E</step>
    <alter>0</alter>
    <octave>5</octave>
  </pitch>
  <duration>12</duration>
  <voice>1</voice>
  <type>quarter</type>
  <stem>down</stem>
</note>
<note>
  <chord/>
  <pitch>
    <step>C</step>
    <alter>0</alter>
    <octave>6</octave>
  </pitch>
  <duration>12</duration>
  <voice>1</voice>
  <type>quarter</type>
  <stem>down</stem>
</note>
<note>
  <chord/>
  <pitch>
    <step>E</step>
    <alter>0</alter>
    <octave>6</octave>
  </pitch>
  <duration>12</duration>
  <voice>1</voice>
  <type>quarter</type>
  <stem>down</stem>
</note>
</measure>
<measure number="26">
<note>
  <pitch>
    <step>F</step>
    <alter>0</alter>
    <octave>4</octave>
  </pitch>
  <duration>18</duration>
  <voice>1</voice>
  <type>quarter</type>
  <dot/>
  <stem>up</stem>
</note>
<note>
  <chord/>
  <pitch>
    <step>A</step>
    <alter>0</alter>
    <octave>4</octave>
  </pitch>
  <duration>18</duration>
  <voice>1</voice>
  <type>quarter</type>
  <dot/>
  <stem>up</stem>
</note>
<note>
  <chord/>
  <pitch>
    <step>D</step>
    <alter>0</alter>
    <octave>5</octave>
  </pitch>
  <duration>18</duration>
  <voice>1</voice>
  <type>quarter</type>
  <dot/>
  <stem>up</stem>
</note>
<note>
  <pitch>
    <step>C</step>
    <alter>0</alter>
    <octave>5</octave>
  </pitch>
  <duration>3</duration>
  <voice>1</voice>
  <type>16th</type>
  <stem>down</stem>
  <beam number="1">begin</beam>
  <beam number="2">begin</beam>
</note>
<note>
  <pitch>
    <step>B</step>
    <alter>0</alter>
    <octave>4</octave>
  </pitch>
  <duration>3</duration>
  <voice>1</voice>
  <type>16th</type>
  <stem>down</stem>
  <beam number="1">end</beam>
  <beam number="2">end</beam>
</note>
<note>
  <pitch>
    <step>F</step>
    <alter>0</alter>
    <octave>4</octave>
  </pitch>
  <duration>24</duration>
  <voice>1</voice>
  <type>half</type>
  <stem>up</stem>
</note>
<note>
  <chord/>
  <pitch>
    <step>A</step>
    <alter>0</alter>
    <octave>4</octave>
  </pitch>
  <duration>24</duration>
  <voice>1</voice>
  <type>half</type>
  <stem>up</stem>
</note>
<note>
  <chord/>
  <pitch>
    <step>C</step>
    <alter>0</alter>
    <octave>5</octave>
  </pitch>
  <duration>24</duration>
  <voice>1</voice>
  <type>half</type>
  <stem>up</stem>
</note>
</measure>
<measure number="27">
<note>
  <pitch>
    <step>A</step>
    <alter>0</alter>
    <octave>4</octave>
  </pitch>
  <duration>6</duration>
  <voice>1</voice>
  <type>eighth</type>
  <stem>down</stem>
  <beam number="1">begin</beam>
</note>
<note>
  <chord/>
  <pitch>
    <step>D</step>
    <alter>0</alter>
    <octave>5</octave>
  </pitch>
  <duration>6</duration>
  <voice>1</voice>
  <type>eighth</type>
  <stem>down</stem>
</note>
<note>
  <chord/>
  <pitch>
    <step>F</step>
    <alter>0</alter>
    <octave>5</octave>
  </pitch>
  <duration>6</duration>
  <voice>1</voice>
  <type>eighth</type>
  <stem>down</stem>
</note>
<note>
  <pitch>
    <step>E</step>
    <alter>0</alter>
    <octave>5</octave>
  </pitch>
  <duration>3</duration>
  <voice>1</voice>
  <type>16th</type>
  <stem>down</stem>
  <beam number="1">continue</beam>
  <beam number="2">begin</beam>
</note>
<note>
  <pitch>
    <step>D</step>
    <alter>0</alter>
    <octave>5</octave>
  </pitch>
  <duration>3</duration>
  <voice>1</voice>
  <type>16th</type>
  <stem>down</stem>
  <beam number="1">end</beam>
  <beam number="2">end</beam>
</note>
<note>
  <pitch>
    <step>A</step>
    <alter>0</alter>
    <octave>4</octave>
  </pitch>
  <duration>12</duration>
  <voice>1</voice>
  <type>quarter</type>
  <stem>up</stem>
</note>
<note>
  <pitch>
    <step>E</step>
    <alter>0</alter>
    <octave>5</octave>
  </pitch>
  <duration>12</duration>
  <voice>1</voice>
  <type>quarter</type>
  <stem>down</stem>
</note>
<note>
  <chord/>
  <pitch>
    <step>E</step>
    <alter>0</alter>
    <octave>6</octave>
  </pitch>
  <duration>12</duration>
  <voice>1</voice>
  <type>quarter</type>
  <stem>down</stem>
</note>
<note>
  <pitch>
    <step>D</step>
    <alter>0</alter>
    <octave>5</octave>
  </pitch>
  <duration>12</duration>
  <voice>1</voice>
  <type>quarter</type>
  <stem>down</stem>
</note>
<note>
  <chord/>
  <pitch>
    <step>D</step>
    <alter>0</alter>
    <octave>6</octave>
  </pitch>
  <duration>12</duration>
  <voice>1</voice>
  <type>quarter</type>
  <stem>down</stem>
</note>
</measure>
<measure number="28">
<note>
  <pitch>
    <step>F</step>
    <alter>0</alter>
    <octave>4</octave>
  </pitch>
  <duration>6</duration>
  <voice>1</voice>
  <type>eighth</type>
  <stem>down</stem>
  <beam number="1">begin</beam>
</note>
<note>
  <chord/>
  <pitch>
    <step>B</step>
    <alter>-1</alter>
    <octave>4</octave>
  </pitch>
  <duration>6</duration>
  <voice>1</voice>
  <type>eighth</type>
<accidental>flat</accidental>
  <stem>down</stem>
</note>
<note>
  <chord/>
  <pitch>
    <step>D</step>
    <alter>0</alter>
    <octave>5</octave>
  </pitch>
  <duration>6</duration>
  <voice>1</voice>
  <type>eighth</type>
  <stem>down</stem>
</note>
<note>
  <pitch>
    <step>C</step>
    <alter>0</alter>
    <octave>5</octave>
  </pitch>
  <duration>3</duration>
  <voice>1</voice>
  <type>16th</type>
  <stem>down</stem>
  <beam number="1">continue</beam>
  <beam number="2">begin</beam>
</note>
<note>
  <pitch>
    <step>B</step>
    <alter>-1</alter>
    <octave>4</octave>
  </pitch>
  <duration>3</duration>
  <voice>1</voice>
  <type>16th</type>
  <stem>down</stem>
  <beam number="1">end</beam>
  <beam number="2">end</beam>
</note>
<note>
  <pitch>
    <step>F</step>
    <alter>0</alter>
    <octave>4</octave>
  </pitch>
  <duration>12</duration>
  <voice>1</voice>
  <type>quarter</type>
  <stem>up</stem>
</note>
<note>
  <pitch>
    <step>C</step>
    <alter>0</alter>
    <octave>5</octave>
  </pitch>
  <duration>12</duration>
  <voice>1</voice>
  <type>quarter</type>
  <stem>down</stem>
</note>
<note>
  <chord/>
  <pitch>
    <step>C</step>
    <alter>0</alter>
    <octave>6</octave>
  </pitch>
  <duration>12</duration>
  <voice>1</voice>
  <type>quarter</type>
  <stem>down</stem>
</note>
<note>
  <pitch>
    <step>B</step>
    <alter>-1</alter>
    <octave>4</octave>
  </pitch>
  <duration>6</duration>
  <voice>1</voice>
  <type>eighth</type>
  <stem>down</stem>
  <beam number="1">begin</beam>
</note>
<note>
  <chord/>
  <pitch>
    <step>B</step>
    <alter>-1</alter>
    <octave>5</octave>
  </pitch>
  <duration>6</duration>
  <voice>1</voice>
  <type>eighth</type>
<accidental>flat</accidental>
  <stem>down</stem>
</note>
<note>
  <pitch>
    <step>C</step>
    <alter>0</alter>
    <octave>5</octave>
  </pitch>
  <duration>3</duration>
  <voice>1</voice>
  <type>16th</type>
  <stem>down</stem>
  <beam number="1">continue</beam>
  <beam number="2">begin</beam>
</note>
<note>
  <chord/>
  <pitch>
    <step>E</step>
    <alter>0</alter>
    <octave>5</octave>
  </pitch>
  <duration>3</duration>
  <voice>1</voice>
  <type>16th</type>
  <stem>down</stem>
</note>
<note>
  <pitch>
    <step>D</step>
    <alter>0</alter>
    <octave>5</octave>
  </pitch>
  <duration>3</duration>
  <voice>1</voice>
  <type>16th</type>
  <stem>down</stem>
  <beam number="1">end</beam>
  <beam number="2">end</beam>
</note>
<note>
  <chord/>
  <pitch>
    <step>F</step>
    <alter>0</alter>
    <octave>5</octave>
  </pitch>
  <duration>3</duration>
  <voice>1</voice>
  <type>16th</type>
  <stem>down</stem>
</note>
</measure>
<measure number="29">
<note>
  <pitch>
    <step>E</step>
    <alter>0</alter>
    <octave>5</octave>
  </pitch>
  <duration>6</duration>
  <voice>1</voice>
  <type>eighth</type>
  <stem>down</stem>
  <beam number="1">begin</beam>
</note>
<note>
  <chord/>
  <pitch>
    <step>G</step>
    <alter>0</alter>
    <octave>5</octave>
  </pitch>
  <duration>6</duration>
  <voice>1</voice>
  <type>eighth</type>
  <stem>down</stem>
</note>
<note>
  <pitch>
    <step>D</step>
    <alter>0</alter>
    <octave>5</octave>
  </pitch>
  <duration>3</duration>
  <voice>1</voice>
  <type>16th</type>
  <stem>down</stem>
  <beam number="1">continue</beam>
  <beam number="2">begin</beam>
</note>
<note>
  <chord/>
  <pitch>
    <step>F</step>
    <alter>0</alter>
    <octave>5</octave>
  </pitch>
  <duration>3</duration>
  <voice>1</voice>
  <type>16th</type>
  <stem>down</stem>
</note>
<note>
  <pitch>
    <step>C</step>
    <alter>0</alter>
    <octave>5</octave>
  </pitch>
  <duration>3</duration>
  <voice>1</voice>
  <type>16th</type>
  <stem>down</stem>
  <beam number="1">end</beam>
  <beam number="2">end</beam>
</note>
<note>
  <chord/>
  <pitch>
    <step>E</step>
    <alter>0</alter>
    <octave>5</octave>
  </pitch>
  <duration>3</duration>
  <voice>1</voice>
  <type>16th</type>
  <stem>down</stem>
</note>
<note>
  <pitch>
    <step>D</step>
    <alter>0</alter>
    <octave>5</octave>
  </pitch>
  <duration>6</duration>
  <voice>1</voice>
  <type>eighth</type>
  <stem>down</stem>
  <beam number="1">begin</beam>
</note>
<note>
  <chord/>
  <pitch>
    <step>F</step>
    <alter>0</alter>
    <octave>5</octave>
  </pitch>
  <duration>6</duration>
  <voice>1</voice>
  <type>eighth</type>
  <stem>down</stem>
</note>
<note>
  <pitch>
    <step>C</step>
    <alter>0</alter>
    <octave>5</octave>
  </pitch>
  <duration>6</duration>
    <tie type="start"/>
  <voice>1</voice>
  <type>eighth</type>
  <stem>down</stem>
  <beam number="1">end</beam>
  <notations>
<tied type="start" number="1" orientation="under"/>
  </notations>
</note>
<note>
  <chord/>
  <pitch>
    <step>E</step>
    <alter>0</alter>
    <octave>5</octave>
  </pitch>
  <duration>6</duration>
    <tie type="start"/>
  <voice>1</voice>
  <type>eighth</type>
  <stem>down</stem>
  <notations>
<tied type="start" number="2" orientation="over"/>
  </notations>
</note>
<note>
  <pitch>
    <step>C</step>
    <alter>0</alter>
    <octave>5</octave>
  </pitch>
  <duration>6</duration>
    <tie type="stop"/>
  <voice>1</voice>
  <type>eighth</type>
  <stem>down</stem>
  <beam number="1">begin</beam>
  <notations>
    <tied type="stop" number="1"/>
  </notations>
</note>
<note>
  <chord/>
  <pitch>
    <step>E</step>
    <alter>0</alter>
    <octave>5</octave>
  </pitch>
  <duration>6</duration>
    <tie type="stop"/>
  <voice>1</voice>
  <type>eighth</type>
  <stem>down</stem>
  <notations>
    <tied type="stop" number="2"/>
  </notations>
</note>
<note>
  <pitch>
    <step>F</step>
    <alter>0</alter>
    <octave>4</octave>
  </pitch>
  <duration>3</duration>
  <voice>1</voice>
  <type>16th</type>
  <stem>down</stem>
  <beam number="1">continue</beam>
  <beam number="2">begin</beam>
</note>
<note>
  <chord/>
  <pitch>
    <step>D</step>
    <alter>0</alter>
    <octave>5</octave>
  </pitch>
  <duration>3</duration>
  <voice>1</voice>
  <type>16th</type>
  <stem>down</stem>
</note>
<note>
  <pitch>
    <step>C</step>
    <alter>0</alter>
    <octave>5</octave>
  </pitch>
  <duration>3</duration>
  <voice>1</voice>
  <type>16th</type>
  <stem>down</stem>
  <beam number="1">end</beam>
  <beam number="2">end</beam>
</note>
<note>
  <pitch>
    <step>D</step>
    <alter>0</alter>
    <octave>5</octave>
  </pitch>
  <duration>6</duration>
  <voice>1</voice>
  <type>eighth</type>
  <stem>down</stem>
  <beam number="1">begin</beam>
</note>
<note>
  <pitch>
    <step>E</step>
    <alter>0</alter>
    <octave>5</octave>
  </pitch>
  <duration>6</duration>
  <voice>1</voice>
  <type>eighth</type>
  <stem>down</stem>
  <beam number="1">end</beam>
</note>
</measure>
<measure number="30">
<note>
  <pitch>
    <step>F</step>
    <alter>0</alter>
    <octave>4</octave>
  </pitch>
  <duration>6</duration>
  <voice>1</voice>
  <type>eighth</type>
  <stem>up</stem>
  <beam number="1">begin</beam>
</note>
<note>
  <chord/>
  <pitch>
    <step>D</step>
    <alter>0</alter>
    <octave>5</octave>
  </pitch>
  <duration>6</duration>
  <voice>1</voice>
  <type>eighth</type>
  <stem>up</stem>
</note>
<note>
  <pitch>
    <step>A</step>
    <alter>0</alter>
    <octave>4</octave>
  </pitch>
  <duration>6</duration>
  <voice>1</voice>
  <type>eighth</type>
  <stem>up</stem>
  <beam number="1">continue</beam>
</note>
<note>
  <pitch>
    <step>D</step>
    <alter>0</alter>
    <octave>5</octave>
  </pitch>
  <duration>6</duration>
  <voice>1</voice>
  <type>eighth</type>
  <stem>up</stem>
  <beam number="1">continue</beam>
</note>
<note>
  <pitch>
    <step>E</step>
    <alter>0</alter>
    <octave>4</octave>
  </pitch>
  <duration>6</duration>
    <tie type="start"/>
  <voice>1</voice>
  <type>eighth</type>
  <stem>up</stem>
  <beam number="1">end</beam>
  <notations>
<tied type="start" number="1" orientation="under"/>
<articulations><tenuto placement="below"/></articulations>
  </notations>
</note>
<note>
  <chord/>
  <pitch>
    <step>G</step>
    <alter>0</alter>
    <octave>4</octave>
  </pitch>
  <duration>6</duration>
    <tie type="start"/>
  <voice>1</voice>
  <type>eighth</type>
  <stem>up</stem>
  <notations>
<tied type="start" number="2" orientation="under"/>
  </notations>
</note>
<note>
  <chord/>
  <pitch>
    <step>C</step>
    <alter>0</alter>
    <octave>5</octave>
  </pitch>
  <duration>6</duration>
    <tie type="start"/>
  <voice>1</voice>
  <type>eighth</type>
  <stem>up</stem>
  <notations>
<tied type="start" number="3" orientation="over"/>
  </notations>
</note>
<note>
  <pitch>
    <step>E</step>
    <alter>0</alter>
    <octave>4</octave>
  </pitch>
  <duration>12</duration>
    <tie type="stop"/>
  <voice>1</voice>
  <type>quarter</type>
  <stem>up</stem>
  <notations>
    <tied type="stop" number="1"/>
  </notations>
</note>
<note>
  <chord/>
  <pitch>
    <step>G</step>
    <alter>0</alter>
    <octave>4</octave>
  </pitch>
  <duration>12</duration>
    <tie type="stop"/>
  <voice>1</voice>
  <type>quarter</type>
  <stem>up</stem>
  <notations>
    <tied type="stop" number="2"/>
  </notations>
</note>
<note>
  <chord/>
  <pitch>
    <step>C</step>
    <alter>0</alter>
    <octave>5</octave>
  </pitch>
  <duration>12</duration>
    <tie type="stop"/>
  <voice>1</voice>
  <type>quarter</type>
  <stem>up</stem>
  <notations>
    <tied type="stop" number="3"/>
  </notations>
</note>
<note>
  <pitch>
    <step>E</step>
    <alter>0</alter>
    <octave>5</octave>
  </pitch>
  <duration>3</duration>
  <voice>1</voice>
  <type>16th</type>
  <stem>down</stem>
  <beam number="1">begin</beam>
  <beam number="2">begin</beam>
</note>
<note>
  <chord/>
  <pitch>
    <step>C</step>
    <alter>0</alter>
    <octave>6</octave>
  </pitch>
  <duration>3</duration>
  <voice>1</voice>
  <type>16th</type>
  <stem>down</stem>
</note>
<note>
  <pitch>
    <step>D</step>
    <alter>0</alter>
    <octave>6</octave>
  </pitch>
  <duration>3</duration>
  <voice>1</voice>
  <type>16th</type>
  <stem>down</stem>
  <beam number="1">continue</beam>
  <beam number="2">end</beam>
</note>
<note>
  <pitch>
    <step>E</step>
    <alter>0</alter>
    <octave>6</octave>
  </pitch>
  <duration>6</duration>
  <voice>1</voice>
  <type>eighth</type>
  <stem>down</stem>
  <beam number="1">end</beam>
</note>
</measure>
<measure number="31">
<direction placement="above"><direction-type><octave-shift type="down"/></direction-type>
<staff>1</staff>
</direction>
<note>
  <pitch>
    <step>A</step>
    <alter>0</alter>
    <octave>5</octave>
  </pitch>
  <duration>6</duration>
  <voice>1</voice>
  <type>eighth</type>
  <stem>down</stem>
  <beam number="1">begin</beam>
  <notations>
<articulations><tenuto placement="below"/></articulations>
  </notations>
</note>
<note>
  <chord/>
  <pitch>
    <step>D</step>
    <alter>0</alter>
    <octave>6</octave>
  </pitch>
  <duration>6</duration>
  <voice>1</voice>
  <type>eighth</type>
  <stem>down</stem>
</note>
<note>
  <chord/>
  <pitch>
    <step>F</step>
    <alter>0</alter>
    <octave>6</octave>
  </pitch>
  <duration>6</duration>
  <voice>1</voice>
  <type>eighth</type>
  <stem>down</stem>
</note>
<note>
  <pitch>
    <step>E</step>
    <alter>0</alter>
    <octave>6</octave>
  </pitch>
  <duration>3</duration>
  <voice>1</voice>
  <type>16th</type>
  <stem>down</stem>
  <beam number="1">continue</beam>
  <beam number="2">begin</beam>
</note>
<note>
  <pitch>
    <step>D</step>
    <alter>0</alter>
    <octave>6</octave>
  </pitch>
  <duration>3</duration>
  <voice>1</voice>
  <type>16th</type>
  <stem>down</stem>
  <beam number="1">end</beam>
  <beam number="2">end</beam>
</note>
<note>
  <pitch>
    <step>A</step>
    <alter>0</alter>
    <octave>5</octave>
  </pitch>
  <duration>12</duration>
  <voice>1</voice>
  <type>quarter</type>
  <stem>up</stem>
</note>
<note>
  <pitch>
    <step>E</step>
    <alter>0</alter>
    <octave>6</octave>
  </pitch>
  <duration>12</duration>
  <voice>1</voice>
  <type>quarter</type>
  <stem>down</stem>
</note>
<note>
  <chord/>
  <pitch>
    <step>E</step>
    <alter>0</alter>
    <octave>7</octave>
  </pitch>
  <duration>12</duration>
  <voice>1</voice>
  <type>quarter</type>
  <stem>down</stem>
</note>
<note>
  <pitch>
    <step>D</step>
    <alter>0</alter>
    <octave>6</octave>
  </pitch>
  <duration>12</duration>
  <voice>1</voice>
  <type>quarter</type>
  <stem>down</stem>
</note>
<note>
  <chord/>
  <pitch>
    <step>D</step>
    <alter>0</alter>
    <octave>7</octave>
  </pitch>
  <duration>12</duration>
  <voice>1</voice>
  <type>quarter</type>
  <stem>down</stem>
</note>
</measure>
<measure number="32">
<note>
  <pitch>
    <step>F</step>
    <alter>0</alter>
    <octave>5</octave>
  </pitch>
  <duration>6</duration>
  <voice>1</voice>
  <type>eighth</type>
  <stem>down</stem>
  <beam number="1">begin</beam>
</note>
<note>
  <chord/>
  <pitch>
    <step>B</step>
    <alter>-1</alter>
    <octave>5</octave>
  </pitch>
  <duration>6</duration>
  <voice>1</voice>
  <type>eighth</type>
<accidental>flat</accidental>
  <stem>down</stem>
</note>
<note>
  <chord/>
  <pitch>
    <step>D</step>
    <alter>0</alter>
    <octave>6</octave>
  </pitch>
  <duration>6</duration>
  <voice>1</voice>
  <type>eighth</type>
  <stem>down</stem>
</note>
<note>
  <pitch>
    <step>C</step>
    <alter>0</alter>
    <octave>6</octave>
  </pitch>
  <duration>3</duration>
  <voice>1</voice>
  <type>16th</type>
  <stem>down</stem>
  <beam number="1">continue</beam>
  <beam number="2">begin</beam>
</note>
<note>
  <pitch>
    <step>B</step>
    <alter>-1</alter>
    <octave>5</octave>
  </pitch>
  <duration>3</duration>
  <voice>1</voice>
  <type>16th</type>
  <stem>down</stem>
  <beam number="1">end</beam>
  <beam number="2">end</beam>
</note>
<note>
  <pitch>
    <step>F</step>
    <alter>0</alter>
    <octave>5</octave>
  </pitch>
  <duration>12</duration>
  <voice>1</voice>
  <type>quarter</type>
  <stem>up</stem>
</note>
<note>
  <pitch>
    <step>C</step>
    <alter>0</alter>
    <octave>6</octave>
  </pitch>
  <duration>12</duration>
  <voice>1</voice>
  <type>quarter</type>
  <stem>down</stem>
</note>
<note>
  <chord/>
  <pitch>
    <step>C</step>
    <alter>0</alter>
    <octave>7</octave>
  </pitch>
  <duration>12</duration>
  <voice>1</voice>
  <type>quarter</type>
  <stem>down</stem>
</note>
<note>
  <pitch>
    <step>B</step>
    <alter>-1</alter>
    <octave>5</octave>
  </pitch>
  <duration>6</duration>
  <voice>1</voice>
  <type>eighth</type>
  <stem>down</stem>
  <beam number="1">begin</beam>
</note>
<note>
  <chord/>
  <pitch>
    <step>B</step>
    <alter>-1</alter>
    <octave>6</octave>
  </pitch>
  <duration>6</duration>
  <voice>1</voice>
  <type>eighth</type>
<accidental>flat</accidental>
  <stem>down</stem>
</note>
<note>
  <pitch>
    <step>C</step>
    <alter>0</alter>
    <octave>6</octave>
  </pitch>
  <duration>3</duration>
  <voice>1</voice>
  <type>16th</type>
  <stem>down</stem>
  <beam number="1">continue</beam>
  <beam number="2">begin</beam>
</note>
<note>
  <chord/>
  <pitch>
    <step>E</step>
    <alter>0</alter>
    <octave>6</octave>
  </pitch>
  <duration>3</duration>
  <voice>1</voice>
  <type>16th</type>
  <stem>down</stem>
</note>
<note>
  <pitch>
    <step>D</step>
    <alter>0</alter>
    <octave>6</octave>
  </pitch>
  <duration>3</duration>
  <voice>1</voice>
  <type>16th</type>
  <stem>down</stem>
  <beam number="1">end</beam>
  <beam number="2">end</beam>
</note>
<note>
  <chord/>
  <pitch>
    <step>F</step>
    <alter>0</alter>
    <octave>6</octave>
  </pitch>
  <duration>3</duration>
  <voice>1</voice>
  <type>16th</type>
  <stem>down</stem>
</note>
</measure>
<measure number="33">
<note>
  <pitch>
    <step>E</step>
    <alter>0</alter>
    <octave>6</octave>
  </pitch>
  <duration>6</duration>
  <voice>1</voice>
  <type>eighth</type>
  <stem>down</stem>
  <beam number="1">begin</beam>
</note>
<note>
  <chord/>
  <pitch>
    <step>G</step>
    <alter>0</alter>
    <octave>6</octave>
  </pitch>
  <duration>6</duration>
  <voice>1</voice>
  <type>eighth</type>
  <stem>down</stem>
</note>
<note>
  <pitch>
    <step>D</step>
    <alter>0</alter>
    <octave>6</octave>
  </pitch>
  <duration>3</duration>
  <voice>1</voice>
  <type>16th</type>
  <stem>down</stem>
  <beam number="1">continue</beam>
  <beam number="2">begin</beam>
</note>
<note>
  <chord/>
  <pitch>
    <step>F</step>
    <alter>0</alter>
    <octave>6</octave>
  </pitch>
  <duration>3</duration>
  <voice>1</voice>
  <type>16th</type>
  <stem>down</stem>
</note>
<note>
  <pitch>
    <step>C</step>
    <alter>0</alter>
    <octave>6</octave>
  </pitch>
  <duration>3</duration>
  <voice>1</voice>
  <type>16th</type>
  <stem>down</stem>
  <beam number="1">end</beam>
  <beam number="2">end</beam>
</note>
<note>
  <chord/>
  <pitch>
    <step>E</step>
    <alter>0</alter>
    <octave>6</octave>
  </pitch>
  <duration>3</duration>
  <voice>1</voice>
  <type>16th</type>
  <stem>down</stem>
</note>
<note>
  <pitch>
    <step>D</step>
    <alter>0</alter>
    <octave>6</octave>
  </pitch>
  <duration>6</duration>
  <voice>1</voice>
  <type>eighth</type>
  <stem>down</stem>
  <beam number="1">begin</beam>
</note>
<note>
  <chord/>
  <pitch>
    <step>F</step>
    <alter>0</alter>
    <octave>6</octave>
  </pitch>
  <duration>6</duration>
  <voice>1</voice>
  <type>eighth</type>
  <stem>down</stem>
</note>
<note>
  <pitch>
    <step>C</step>
    <alter>0</alter>
    <octave>6</octave>
  </pitch>
  <duration>6</duration>
    <tie type="start"/>
  <voice>1</voice>
  <type>eighth</type>
  <stem>down</stem>
  <beam number="1">end</beam>
  <notations>
<tied type="start" number="1" orientation="under"/>
  </notations>
</note>
<note>
  <chord/>
  <pitch>
    <step>E</step>
    <alter>0</alter>
    <octave>6</octave>
  </pitch>
  <duration>6</duration>
    <tie type="start"/>
  <voice>1</voice>
  <type>eighth</type>
  <stem>down</stem>
  <notations>
<tied type="start" number="2" orientation="over"/>
  </notations>
</note>
<note>
  <pitch>
    <step>C</step>
    <alter>0</alter>
    <octave>6</octave>
  </pitch>
  <duration>6</duration>
    <tie type="stop"/>
  <voice>1</voice>
  <type>eighth</type>
  <stem>down</stem>
  <beam number="1">begin</beam>
  <notations>
    <tied type="stop" number="1"/>
  </notations>
</note>
<note>
  <chord/>
  <pitch>
    <step>E</step>
    <alter>0</alter>
    <octave>6</octave>
  </pitch>
  <duration>6</duration>
    <tie type="stop"/>
  <voice>1</voice>
  <type>eighth</type>
  <stem>down</stem>
  <notations>
    <tied type="stop" number="2"/>
  </notations>
</note>
<note>
  <pitch>
    <step>F</step>
    <alter>0</alter>
    <octave>5</octave>
  </pitch>
  <duration>3</duration>
  <voice>1</voice>
  <type>16th</type>
  <stem>down</stem>
  <beam number="1">continue</beam>
  <beam number="2">begin</beam>
</note>
<note>
  <chord/>
  <pitch>
    <step>D</step>
    <alter>0</alter>
    <octave>6</octave>
  </pitch>
  <duration>3</duration>
  <voice>1</voice>
  <type>16th</type>
  <stem>down</stem>
</note>
<note>
  <pitch>
    <step>C</step>
    <alter>0</alter>
    <octave>6</octave>
  </pitch>
  <duration>3</duration>
  <voice>1</voice>
  <type>16th</type>
  <stem>down</stem>
  <beam number="1">end</beam>
  <beam number="2">end</beam>
</note>
<note>
  <pitch>
    <step>D</step>
    <alter>0</alter>
    <octave>6</octave>
  </pitch>
  <duration>6</duration>
  <voice>1</voice>
  <type>eighth</type>
  <stem>down</stem>
  <beam number="1">begin</beam>
</note>
<note>
  <pitch>
    <step>E</step>
    <alter>0</alter>
    <octave>6</octave>
  </pitch>
  <duration>6</duration>
  <voice>1</voice>
  <type>eighth</type>
  <stem>down</stem>
  <beam number="1">end</beam>
</note>
</measure>
<measure number="34">
<note>
  <pitch>
    <step>G</step>
    <alter>0</alter>
    <octave>5</octave>
  </pitch>
  <duration>6</duration>
  <voice>1</voice>
  <type>eighth</type>
  <stem>up</stem>
  <beam number="1">begin</beam>
</note>
<note>
  <chord/>
  <pitch>
    <step>D</step>
    <alter>0</alter>
    <octave>6</octave>
  </pitch>
  <duration>6</duration>
  <voice>1</voice>
  <type>eighth</type>
  <stem>up</stem>
</note>
<note>
  <pitch>
    <step>A</step>
    <alter>0</alter>
    <octave>5</octave>
  </pitch>
  <duration>6</duration>
  <voice>1</voice>
  <type>eighth</type>
  <stem>up</stem>
  <beam number="1">continue</beam>
</note>
<note>
  <pitch>
    <step>E</step>
    <alter>0</alter>
    <octave>5</octave>
  </pitch>
  <duration>6</duration>
  <voice>1</voice>
  <type>eighth</type>
  <stem>up</stem>
  <beam number="1">continue</beam>
</note>
<note>
  <pitch>
    <step>G</step>
    <alter>0</alter>
    <octave>5</octave>
  </pitch>
  <duration>6</duration>
  <voice>1</voice>
  <type>eighth</type>
  <stem>up</stem>
  <beam number="1">end</beam>
</note>
<note>
  <pitch>
    <step>D</step>
    <alter>0</alter>
    <octave>5</octave>
  </pitch>
  <duration>24</duration>
  <voice>1</voice>
  <type>half</type>
  <stem>up</stem>
</note>
<note>
  <chord/>
  <pitch>
    <step>F</step>
    <alter>1</alter>
    <octave>5</octave>
  </pitch>
  <duration>24</duration>
  <voice>1</voice>
  <type>half</type>
<accidental>sharp</accidental>
  <stem>up</stem>
</note>
<note>
  <chord/>
  <pitch>
    <step>D</step>
    <alter>0</alter>
    <octave>6</octave>
  </pitch>
  <duration>24</duration>
  <voice>1</voice>
  <type>half</type>
  <stem>up</stem>
</note>
<direction><direction-type><octave-shift type="stop"/></direction-type><offset>-1</offset>
<staff>1</staff>
</direction>
<barline location="right"><bar-style>light-heavy</bar-style></barline>
</measure>
<measure number="35">
<note>
  <rest measure="yes"/>
  <duration>48</duration>
  <voice>1</voice>
  <type>whole</type>
</note>
</measure>
</part>
</score-partwise>
